0
SECTION
2
HEADER
9
$ACADVER
1
AC1015
9
$INSBASE
10
0.0
20
0.0
30
0.0
0
ENDSEC
0
SECTION
2
TABLES
0
TABLE
2
LAYER
5
2
100
AcDbSymbolTable
70
7
0
LAYER
5
10
100
AcDbSymbolTableRecord
100
AcDbLayerTableRecord
2
0
70
0
6
CONTINUOUS
0
LAYER
5
11
100
AcDbSymbolTableRecord
100
AcDbLayerTableRecord
2
CORE_LAYER
70
0
62
1
6
CONTINUOUS
0
LAYER
5
11
100
AcDbSymbolTableRecord
100
AcDbLayerTableRecord
2
DISTRIBUTION_LAYER
70
0
62
5
6
CONTINUOUS
0
LAYER
5
11
100
AcDbSymbolTableRecord
100
AcDbLayerTableRecord
2
ACCESS_LAYER
70
0
62
3
6
CONTINUOUS
0
LAYER
5
11
100
AcDbSymbolTableRecord
100
AcDbLayerTableRecord
2
LOGICAL_CONNECTIONS
70
0
62
8
6
CONTINUOUS
0
LAYER
5
11
100
AcDbSymbolTableRecord
100
AcDbLayerTableRecord
2
IP_ADDRESSES
70
0
62
7
6
CONTINUOUS
0
LAYER
5
11
100
AcDbSymbolTableRecord
100
AcDbLayerTableRecord
2
PROTOCOLS
70
0
62
2
6
CONTINUOUS
0
ENDTAB
0
ENDSEC
0
SECTION
2
ENTITIES
0
CIRCLE
5
A0
100
AcDbEntity
8
CORE_LAYER
62
7
100
AcDbCircle
10
400
20
400
30
0.0
40
30
0
TEXT
5
A2
100
AcDbEntity
8
PROTOCOLS
62
7
100
AcDbText
10
350
20
440
30
0.0
40
4.0
1
INTERNET
50
0.0
0
TEXT
5
A2
100
AcDbEntity
8
IP_ADDRESSES
62
7
100
AcDbText
10
350
20
340
30
0.0
40
3.0
1
Core Layer
50
0.0
0
CIRCLE
5
A0
100
AcDbEntity
8
DISTRIBUTION_LAYER
62
7
100
AcDbCircle
10
100
20
250
30
0.0
40
20
0
TEXT
5
A2
100
AcDbEntity
8
IP_ADDRESSES
62
7
100
AcDbText
10
85
20
280
30
0.0
40
2.5
1
HUB-1
50
0.0
0
TEXT
5
A2
100
AcDbEntity
8
IP_ADDRESSES
62
7
100
AcDbText
10
80
20
210
30
0.0
40
2.0
1
10.0.1.1
50
0.0
0
LINE
5
A1
100
AcDbEntity
8
LOGICAL_CONNECTIONS
62
7
100
AcDbLine
10
100
20
270
30
0.0
11
400
21
370
31
0.0
0
CIRCLE
5
A0
100
AcDbEntity
8
DISTRIBUTION_LAYER
62
7
100
AcDbCircle
10
170
20
250
30
0.0
40
20
0
TEXT
5
A2
100
AcDbEntity
8
IP_ADDRESSES
62
7
100
AcDbText
10
155
20
280
30
0.0
40
2.5
1
HUB-2
50
0.0
0
TEXT
5
A2
100
AcDbEntity
8
IP_ADDRESSES
62
7
100
AcDbText
10
150
20
210
30
0.0
40
2.0
1
10.0.2.1
50
0.0
0
LINE
5
A1
100
AcDbEntity
8
LOGICAL_CONNECTIONS
62
7
100
AcDbLine
10
170
20
270
30
0.0
11
400
21
370
31
0.0
0
CIRCLE
5
A0
100
AcDbEntity
8
DISTRIBUTION_LAYER
62
7
100
AcDbCircle
10
240
20
250
30
0.0
40
20
0
TEXT
5
A2
100
AcDbEntity
8
IP_ADDRESSES
62
7
100
AcDbText
10
225
20
280
30
0.0
40
2.5
1
HUB-3
50
0.0
0
TEXT
5
A2
100
AcDbEntity
8
IP_ADDRESSES
62
7
100
AcDbText
10
220
20
210
30
0.0
40
2.0
1
10.0.3.1
50
0.0
0
LINE
5
A1
100
AcDbEntity
8
LOGICAL_CONNECTIONS
62
7
100
AcDbLine
10
240
20
270
30
0.0
11
400
21
370
31
0.0
0
CIRCLE
5
A0
100
AcDbEntity
8
DISTRIBUTION_LAYER
62
7
100
AcDbCircle
10
310
20
250
30
0.0
40
20
0
TEXT
5
A2
100
AcDbEntity
8
IP_ADDRESSES
62
7
100
AcDbText
10
295
20
280
30
0.0
40
2.5
1
HUB-4
50
0.0
0
TEXT
5
A2
100
AcDbEntity
8
IP_ADDRESSES
62
7
100
AcDbText
10
290
20
210
30
0.0
40
2.0
1
10.0.4.1
50
0.0
0
LINE
5
A1
100
AcDbEntity
8
LOGICAL_CONNECTIONS
62
7
100
AcDbLine
10
310
20
270
30
0.0
11
400
21
370
31
0.0
0
CIRCLE
5
A0
100
AcDbEntity
8
DISTRIBUTION_LAYER
62
7
100
AcDbCircle
10
380
20
250
30
0.0
40
20
0
TEXT
5
A2
100
AcDbEntity
8
IP_ADDRESSES
62
7
100
AcDbText
10
365
20
280
30
0.0
40
2.5
1
HUB-5
50
0.0
0
TEXT
5
A2
100
AcDbEntity
8
IP_ADDRESSES
62
7
100
AcDbText
10
360
20
210
30
0.0
40
2.0
1
10.0.5.1
50
0.0
0
LINE
5
A1
100
AcDbEntity
8
LOGICAL_CONNECTIONS
62
7
100
AcDbLine
10
380
20
270
30
0.0
11
400
21
370
31
0.0
0
CIRCLE
5
A0
100
AcDbEntity
8
DISTRIBUTION_LAYER
62
7
100
AcDbCircle
10
450
20
250
30
0.0
40
20
0
TEXT
5
A2
100
AcDbEntity
8
IP_ADDRESSES
62
7
100
AcDbText
10
435
20
280
30
0.0
40
2.5
1
HUB-6
50
0.0
0
TEXT
5
A2
100
AcDbEntity
8
IP_ADDRESSES
62
7
100
AcDbText
10
430
20
210
30
0.0
40
2.0
1
10.0.6.1
50
0.0
0
LINE
5
A1
100
AcDbEntity
8
LOGICAL_CONNECTIONS
62
7
100
AcDbLine
10
450
20
270
30
0.0
11
400
21
370
31
0.0
0
CIRCLE
5
A0
100
AcDbEntity
8
DISTRIBUTION_LAYER
62
7
100
AcDbCircle
10
520
20
250
30
0.0
40
20
0
TEXT
5
A2
100
AcDbEntity
8
IP_ADDRESSES
62
7
100
AcDbText
10
505
20
280
30
0.0
40
2.5
1
HUB-7
50
0.0
0
TEXT
5
A2
100
AcDbEntity
8
IP_ADDRESSES
62
7
100
AcDbText
10
500
20
210
30
0.0
40
2.0
1
10.0.7.1
50
0.0
0
LINE
5
A1
100
AcDbEntity
8
LOGICAL_CONNECTIONS
62
7
100
AcDbLine
10
520
20
270
30
0.0
11
400
21
370
31
0.0
0
CIRCLE
5
A0
100
AcDbEntity
8
DISTRIBUTION_LAYER
62
7
100
AcDbCircle
10
590
20
250
30
0.0
40
20
0
TEXT
5
A2
100
AcDbEntity
8
IP_ADDRESSES
62
7
100
AcDbText
10
575
20
280
30
0.0
40
2.5
1
HUB-8
50
0.0
0
TEXT
5
A2
100
AcDbEntity
8
IP_ADDRESSES
62
7
100
AcDbText
10
570
20
210
30
0.0
40
2.0
1
10.0.8.1
50
0.0
0
LINE
5
A1
100
AcDbEntity
8
LOGICAL_CONNECTIONS
62
7
100
AcDbLine
10
590
20
270
30
0.0
11
400
21
370
31
0.0
0
CIRCLE
5
A0
100
AcDbEntity
8
DISTRIBUTION_LAYER
62
7
100
AcDbCircle
10
660
20
250
30
0.0
40
20
0
TEXT
5
A2
100
AcDbEntity
8
IP_ADDRESSES
62
7
100
AcDbText
10
645
20
280
30
0.0
40
2.5
1
HUB-9
50
0.0
0
TEXT
5
A2
100
AcDbEntity
8
IP_ADDRESSES
62
7
100
AcDbText
10
640
20
210
30
0.0
40
2.0
1
10.0.9.1
50
0.0
0
LINE
5
A1
100
AcDbEntity
8
LOGICAL_CONNECTIONS
62
7
100
AcDbLine
10
660
20
270
30
0.0
11
400
21
370
31
0.0
0
CIRCLE
5
A0
100
AcDbEntity
8
DISTRIBUTION_LAYER
62
7
100
AcDbCircle
10
730
20
250
30
0.0
40
20
0
TEXT
5
A2
100
AcDbEntity
8
IP_ADDRESSES
62
7
100
AcDbText
10
715
20
280
30
0.0
40
2.5
1
HUB-10
50
0.0
0
TEXT
5
A2
100
AcDbEntity
8
IP_ADDRESSES
62
7
100
AcDbText
10
710
20
210
30
0.0
40
2.0
1
10.0.10.1
50
0.0
0
LINE
5
A1
100
AcDbEntity
8
LOGICAL_CONNECTIONS
62
7
100
AcDbLine
10
730
20
270
30
0.0
11
400
21
370
31
0.0
0
CIRCLE
5
A0
100
AcDbEntity
8
ACCESS_LAYER
62
7
100
AcDbCircle
10
50
20
100
30
0.0
40
8
0
TEXT
5
A2
100
AcDbEntity
8
IP_ADDRESSES
62
7
100
AcDbText
10
35
20
75
30
0.0
40
1.5
1
192.168.1.10
50
0.0
0
LINE
5
A1
100
AcDbEntity
8
LOGICAL_CONNECTIONS
62
7
100
AcDbLine
10
50
20
108
30
0.0
11
100
21
230
31
0.0
0
CIRCLE
5
A0
100
AcDbEntity
8
ACCESS_LAYER
62
7
100
AcDbCircle
10
85
20
100
30
0.0
40
8
0
LINE
5
A1
100
AcDbEntity
8
LOGICAL_CONNECTIONS
62
7
100
AcDbLine
10
85
20
108
30
0.0
11
100
21
230
31
0.0
0
CIRCLE
5
A0
100
AcDbEntity
8
ACCESS_LAYER
62
7
100
AcDbCircle
10
120
20
100
30
0.0
40
8
0
LINE
5
A1
100
AcDbEntity
8
LOGICAL_CONNECTIONS
62
7
100
AcDbLine
10
120
20
108
30
0.0
11
170
21
230
31
0.0
0
CIRCLE
5
A0
100
AcDbEntity
8
ACCESS_LAYER
62
7
100
AcDbCircle
10
155
20
100
30
0.0
40
8
0
LINE
5
A1
100
AcDbEntity
8
LOGICAL_CONNECTIONS
62
7
100
AcDbLine
10
155
20
108
30
0.0
11
170
21
230
31
0.0
0
CIRCLE
5
A0
100
AcDbEntity
8
ACCESS_LAYER
62
7
100
AcDbCircle
10
190
20
100
30
0.0
40
8
0
LINE
5
A1
100
AcDbEntity
8
LOGICAL_CONNECTIONS
62
7
100
AcDbLine
10
190
20
108
30
0.0
11
240
21
230
31
0.0
0
CIRCLE
5
A0
100
AcDbEntity
8
ACCESS_LAYER
62
7
100
AcDbCircle
10
225
20
100
30
0.0
40
8
0
TEXT
5
A2
100
AcDbEntity
8
IP_ADDRESSES
62
7
100
AcDbText
10
210
20
75
30
0.0
40
1.5
1
192.168.2.10
50
0.0
0
LINE
5
A1
100
AcDbEntity
8
LOGICAL_CONNECTIONS
62
7
100
AcDbLine
10
225
20
108
30
0.0
11
240
21
230
31
0.0
0
CIRCLE
5
A0
100
AcDbEntity
8
ACCESS_LAYER
62
7
100
AcDbCircle
10
260
20
100
30
0.0
40
8
0
LINE
5
A1
100
AcDbEntity
8
LOGICAL_CONNECTIONS
62
7
100
AcDbLine
10
260
20
108
30
0.0
11
310
21
230
31
0.0
0
CIRCLE
5
A0
100
AcDbEntity
8
ACCESS_LAYER
62
7
100
AcDbCircle
10
295
20
100
30
0.0
40
8
0
LINE
5
A1
100
AcDbEntity
8
LOGICAL_CONNECTIONS
62
7
100
AcDbLine
10
295
20
108
30
0.0
11
310
21
230
31
0.0
0
CIRCLE
5
A0
100
AcDbEntity
8
ACCESS_LAYER
62
7
100
AcDbCircle
10
330
20
100
30
0.0
40
8
0
LINE
5
A1
100
AcDbEntity
8
LOGICAL_CONNECTIONS
62
7
100
AcDbLine
10
330
20
108
30
0.0
11
380
21
230
31
0.0
0
CIRCLE
5
A0
100
AcDbEntity
8
ACCESS_LAYER
62
7
100
AcDbCircle
10
365
20
100
30
0.0
40
8
0
LINE
5
A1
100
AcDbEntity
8
LOGICAL_CONNECTIONS
62
7
100
AcDbLine
10
365
20
108
30
0.0
11
380
21
230
31
0.0
0
CIRCLE
5
A0
100
AcDbEntity
8
ACCESS_LAYER
62
7
100
AcDbCircle
10
400
20
100
30
0.0
40
8
0
TEXT
5
A2
100
AcDbEntity
8
IP_ADDRESSES
62
7
100
AcDbText
10
385
20
75
30
0.0
40
1.5
1
192.168.3.10
50
0.0
0
LINE
5
A1
100
AcDbEntity
8
LOGICAL_CONNECTIONS
62
7
100
AcDbLine
10
400
20
108
30
0.0
11
450
21
230
31
0.0
0
CIRCLE
5
A0
100
AcDbEntity
8
ACCESS_LAYER
62
7
100
AcDbCircle
10
435
20
100
30
0.0
40
8
0
LINE
5
A1
100
AcDbEntity
8
LOGICAL_CONNECTIONS
62
7
100
AcDbLine
10
435
20
108
30
0.0
11
450
21
230
31
0.0
0
CIRCLE
5
A0
100
AcDbEntity
8
ACCESS_LAYER
62
7
100
AcDbCircle
10
470
20
100
30
0.0
40
8
0
LINE
5
A1
100
AcDbEntity
8
LOGICAL_CONNECTIONS
62
7
100
AcDbLine
10
470
20
108
30
0.0
11
520
21
230
31
0.0
0
CIRCLE
5
A0
100
AcDbEntity
8
ACCESS_LAYER
62
7
100
AcDbCircle
10
505
20
100
30
0.0
40
8
0
LINE
5
A1
100
AcDbEntity
8
LOGICAL_CONNECTIONS
62
7
100
AcDbLine
10
505
20
108
30
0.0
11
520
21
230
31
0.0
0
CIRCLE
5
A0
100
AcDbEntity
8
ACCESS_LAYER
62
7
100
AcDbCircle
10
540
20
100
30
0.0
40
8
0
LINE
5
A1
100
AcDbEntity
8
LOGICAL_CONNECTIONS
62
7
100
AcDbLine
10
540
20
108
30
0.0
11
590
21
230
31
0.0
0
CIRCLE
5
A0
100
AcDbEntity
8
ACCESS_LAYER
62
7
100
AcDbCircle
10
575
20
100
30
0.0
40
8
0
TEXT
5
A2
100
AcDbEntity
8
IP_ADDRESSES
62
7
100
AcDbText
10
560
20
75
30
0.0
40
1.5
1
192.168.4.10
50
0.0
0
LINE
5
A1
100
AcDbEntity
8
LOGICAL_CONNECTIONS
62
7
100
AcDbLine
10
575
20
108
30
0.0
11
590
21
230
31
0.0
0
CIRCLE
5
A0
100
AcDbEntity
8
ACCESS_LAYER
62
7
100
AcDbCircle
10
610
20
100
30
0.0
40
8
0
LINE
5
A1
100
AcDbEntity
8
LOGICAL_CONNECTIONS
62
7
100
AcDbLine
10
610
20
108
30
0.0
11
660
21
230
31
0.0
0
CIRCLE
5
A0
100
AcDbEntity
8
ACCESS_LAYER
62
7
100
AcDbCircle
10
645
20
100
30
0.0
40
8
0
LINE
5
A1
100
AcDbEntity
8
LOGICAL_CONNECTIONS
62
7
100
AcDbLine
10
645
20
108
30
0.0
11
660
21
230
31
0.0
0
CIRCLE
5
A0
100
AcDbEntity
8
ACCESS_LAYER
62
7
100
AcDbCircle
10
680
20
100
30
0.0
40
8
0
LINE
5
A1
100
AcDbEntity
8
LOGICAL_CONNECTIONS
62
7
100
AcDbLine
10
680
20
108
30
0.0
11
730
21
230
31
0.0
0
CIRCLE
5
A0
100
AcDbEntity
8
ACCESS_LAYER
62
7
100
AcDbCircle
10
715
20
100
30
0.0
40
8
0
LINE
5
A1
100
AcDbEntity
8
LOGICAL_CONNECTIONS
62
7
100
AcDbLine
10
715
20
108
30
0.0
11
730
21
230
31
0.0
0
TEXT
5
A2
100
AcDbEntity
8
PROTOCOLS
62
7
100
AcDbText
10
50
20
500
30
0.0
40
8.0
1
AEONCOSMA P2P NETWORK - DIAGRAMA LÓGICO
50
0.0
0
TEXT
5
A2
100
AcDbEntity
8
PROTOCOLS
62
7
100
AcDbText
10
50
20
480
30
0.0
40
4.0
1
Arquitetura de Rede Hierárquica
50
0.0
0
TEXT
5
A2
100
AcDbEntity
8
PROTOCOLS
62
7
100
AcDbText
10
500
20
450
30
0.0
40
3.0
1
ESPECIFICAÇÕES TÉCNICAS:
50
0.0
0
TEXT
5
A2
100
AcDbEntity
8
PROTOCOLS
62
7
100
AcDbText
10
500
20
430
30
0.0
40
3.0
1
• Total de Nós: 105
50
0.0
0
TEXT
5
A2
100
AcDbEntity
8
PROTOCOLS
62
7
100
AcDbText
10
500
20
410
30
0.0
40
3.0
1
• Throughput: 72.6 msg/s
50
0.0
0
TEXT
5
A2
100
AcDbEntity
8
PROTOCOLS
62
7
100
AcDbText
10
500
20
390
30
0.0
40
3.0
1
• Disponibilidade: 100.0%
50
0.0
0
TEXT
5
A2
100
AcDbEntity
8
PROTOCOLS
62
7
100
AcDbText
10
500
20
370
30
0.0
40
3.0
1
• Protocolo: TCP/IP sobre P2P
50
0.0
0
TEXT
5
A2
100
AcDbEntity
8
PROTOCOLS
62
7
100
AcDbText
10
500
20
350
30
0.0
40
3.0
1
• Segurança: AES-256 + PKI
50
0.0
0
TEXT
5
A2
100
AcDbEntity
8
PROTOCOLS
62
7
100
AcDbText
10
500
20
330
30
0.0
40
3.0
1
• Topologia: Híbrida Star-Mesh
50
0.0
0
ENDSEC
0
EOF
