0
SECTION
2
HEADER
9
$ACADVER
1
AC1015
9
$INSBASE
10
0.0
20
0.0
30
0.0
0
ENDSEC
0
SECTION
2
TABLES
0
TABLE
2
LAYER
5
2
100
AcDbSymbolTable
70
8
0
LAYER
5
10
100
AcDbSymbolTableRecord
100
AcDbLayerTableRecord
2
0
70
0
6
CONTINUOUS
0
LAYER
5
11
100
AcDbSymbolTableRecord
100
AcDbLayerTableRecord
2
HUB_NODES
70
0
62
1
6
CONTINUOUS
0
LAYER
5
11
100
AcDbSymbolTableRecord
100
AcDbLayerTableRecord
2
STANDARD_NODES
70
0
62
5
6
CONTINUOUS
0
LAYER
5
11
100
AcDbSymbolTableRecord
100
AcDbLayerTableRecord
2
CONNECTIONS
70
0
62
8
6
CONTINUOUS
0
LAYER
5
11
100
AcDbSymbolTableRecord
100
AcDbLayerTableRecord
2
LABELS
70
0
62
7
6
CONTINUOUS
0
LAYER
5
11
100
AcDbSymbolTableRecord
100
AcDbLayerTableRecord
2
TITLE
70
0
62
2
6
CONTINUOUS
0
LAYER
5
11
100
AcDbSymbolTableRecord
100
AcDbLayerTableRecord
2
STATS
70
0
62
3
6
CONTINUOUS
0
LAYER
5
11
100
AcDbSymbolTableRecord
100
AcDbLayerTableRecord
2
BORDER
70
0
62
6
6
CONTINUOUS
0
ENDTAB
0
ENDSEC
0
SECTION
2
ENTITIES
0
LINE
5
A1
100
AcDbEntity
8
CONNECTIONS
62
7
100
AcDbLine
10
50.0
20
0.0
30
0.0
11
40.45084971874737
21
29.389262614623657
31
0.0
0
LINE
5
A1
100
AcDbEntity
8
CONNECTIONS
62
7
100
AcDbLine
10
50.0
20
0.0
30
0.0
11
15.450849718747373
21
47.552825814757675
31
0.0
0
LINE
5
A1
100
AcDbEntity
8
CONNECTIONS
62
7
100
AcDbLine
10
50.0
20
0.0
30
0.0
11
-15.450849718747367
21
47.55282581475768
31
0.0
0
LINE
5
A1
100
AcDbEntity
8
CONNECTIONS
62
7
100
AcDbLine
10
50.0
20
0.0
30
0.0
11
-40.450849718747364
21
29.38926261462366
31
0.0
0
LINE
5
A1
100
AcDbEntity
8
CONNECTIONS
62
7
100
AcDbLine
10
50.0
20
0.0
30
0.0
11
-50.0
21
6.123233995736766e-15
31
0.0
0
LINE
5
A1
100
AcDbEntity
8
CONNECTIONS
62
7
100
AcDbLine
10
50.0
20
0.0
30
0.0
11
-40.45084971874737
21
-29.38926261462365
31
0.0
0
LINE
5
A1
100
AcDbEntity
8
CONNECTIONS
62
7
100
AcDbLine
10
50.0
20
0.0
30
0.0
11
-15.450849718747378
21
-47.552825814757675
31
0.0
0
LINE
5
A1
100
AcDbEntity
8
CONNECTIONS
62
7
100
AcDbLine
10
50.0
20
0.0
30
0.0
11
15.450849718747362
21
-47.55282581475768
31
0.0
0
LINE
5
A1
100
AcDbEntity
8
CONNECTIONS
62
7
100
AcDbLine
10
50.0
20
0.0
30
0.0
11
40.450849718747364
21
-29.389262614623668
31
0.0
0
LINE
5
A1
100
AcDbEntity
8
CONNECTIONS
62
7
100
AcDbLine
10
40.45084971874737
20
29.389262614623657
30
0.0
11
15.450849718747373
21
47.552825814757675
31
0.0
0
LINE
5
A1
100
AcDbEntity
8
CONNECTIONS
62
7
100
AcDbLine
10
40.45084971874737
20
29.389262614623657
30
0.0
11
-15.450849718747367
21
47.55282581475768
31
0.0
0
LINE
5
A1
100
AcDbEntity
8
CONNECTIONS
62
7
100
AcDbLine
10
40.45084971874737
20
29.389262614623657
30
0.0
11
-40.450849718747364
21
29.38926261462366
31
0.0
0
LINE
5
A1
100
AcDbEntity
8
CONNECTIONS
62
7
100
AcDbLine
10
40.45084971874737
20
29.389262614623657
30
0.0
11
-50.0
21
6.123233995736766e-15
31
0.0
0
LINE
5
A1
100
AcDbEntity
8
CONNECTIONS
62
7
100
AcDbLine
10
40.45084971874737
20
29.389262614623657
30
0.0
11
-40.45084971874737
21
-29.38926261462365
31
0.0
0
LINE
5
A1
100
AcDbEntity
8
CONNECTIONS
62
7
100
AcDbLine
10
40.45084971874737
20
29.389262614623657
30
0.0
11
-15.450849718747378
21
-47.552825814757675
31
0.0
0
LINE
5
A1
100
AcDbEntity
8
CONNECTIONS
62
7
100
AcDbLine
10
40.45084971874737
20
29.389262614623657
30
0.0
11
15.450849718747362
21
-47.55282581475768
31
0.0
0
LINE
5
A1
100
AcDbEntity
8
CONNECTIONS
62
7
100
AcDbLine
10
40.45084971874737
20
29.389262614623657
30
0.0
11
40.450849718747364
21
-29.389262614623668
31
0.0
0
LINE
5
A1
100
AcDbEntity
8
CONNECTIONS
62
7
100
AcDbLine
10
15.450849718747373
20
47.552825814757675
30
0.0
11
-15.450849718747367
21
47.55282581475768
31
0.0
0
LINE
5
A1
100
AcDbEntity
8
CONNECTIONS
62
7
100
AcDbLine
10
15.450849718747373
20
47.552825814757675
30
0.0
11
-40.450849718747364
21
29.38926261462366
31
0.0
0
LINE
5
A1
100
AcDbEntity
8
CONNECTIONS
62
7
100
AcDbLine
10
15.450849718747373
20
47.552825814757675
30
0.0
11
-50.0
21
6.123233995736766e-15
31
0.0
0
LINE
5
A1
100
AcDbEntity
8
CONNECTIONS
62
7
100
AcDbLine
10
15.450849718747373
20
47.552825814757675
30
0.0
11
-40.45084971874737
21
-29.38926261462365
31
0.0
0
LINE
5
A1
100
AcDbEntity
8
CONNECTIONS
62
7
100
AcDbLine
10
15.450849718747373
20
47.552825814757675
30
0.0
11
-15.450849718747378
21
-47.552825814757675
31
0.0
0
LINE
5
A1
100
AcDbEntity
8
CONNECTIONS
62
7
100
AcDbLine
10
15.450849718747373
20
47.552825814757675
30
0.0
11
15.450849718747362
21
-47.55282581475768
31
0.0
0
LINE
5
A1
100
AcDbEntity
8
CONNECTIONS
62
7
100
AcDbLine
10
15.450849718747373
20
47.552825814757675
30
0.0
11
40.450849718747364
21
-29.389262614623668
31
0.0
0
LINE
5
A1
100
AcDbEntity
8
CONNECTIONS
62
7
100
AcDbLine
10
-15.450849718747367
20
47.55282581475768
30
0.0
11
-40.450849718747364
21
29.38926261462366
31
0.0
0
LINE
5
A1
100
AcDbEntity
8
CONNECTIONS
62
7
100
AcDbLine
10
-15.450849718747367
20
47.55282581475768
30
0.0
11
-50.0
21
6.123233995736766e-15
31
0.0
0
LINE
5
A1
100
AcDbEntity
8
CONNECTIONS
62
7
100
AcDbLine
10
-15.450849718747367
20
47.55282581475768
30
0.0
11
-40.45084971874737
21
-29.38926261462365
31
0.0
0
LINE
5
A1
100
AcDbEntity
8
CONNECTIONS
62
7
100
AcDbLine
10
-15.450849718747367
20
47.55282581475768
30
0.0
11
-15.450849718747378
21
-47.552825814757675
31
0.0
0
LINE
5
A1
100
AcDbEntity
8
CONNECTIONS
62
7
100
AcDbLine
10
-15.450849718747367
20
47.55282581475768
30
0.0
11
15.450849718747362
21
-47.55282581475768
31
0.0
0
LINE
5
A1
100
AcDbEntity
8
CONNECTIONS
62
7
100
AcDbLine
10
-15.450849718747367
20
47.55282581475768
30
0.0
11
40.450849718747364
21
-29.389262614623668
31
0.0
0
LINE
5
A1
100
AcDbEntity
8
CONNECTIONS
62
7
100
AcDbLine
10
-40.450849718747364
20
29.38926261462366
30
0.0
11
-50.0
21
6.123233995736766e-15
31
0.0
0
LINE
5
A1
100
AcDbEntity
8
CONNECTIONS
62
7
100
AcDbLine
10
-40.450849718747364
20
29.38926261462366
30
0.0
11
-40.45084971874737
21
-29.38926261462365
31
0.0
0
LINE
5
A1
100
AcDbEntity
8
CONNECTIONS
62
7
100
AcDbLine
10
-40.450849718747364
20
29.38926261462366
30
0.0
11
-15.450849718747378
21
-47.552825814757675
31
0.0
0
LINE
5
A1
100
AcDbEntity
8
CONNECTIONS
62
7
100
AcDbLine
10
-40.450849718747364
20
29.38926261462366
30
0.0
11
15.450849718747362
21
-47.55282581475768
31
0.0
0
LINE
5
A1
100
AcDbEntity
8
CONNECTIONS
62
7
100
AcDbLine
10
-40.450849718747364
20
29.38926261462366
30
0.0
11
40.450849718747364
21
-29.389262614623668
31
0.0
0
LINE
5
A1
100
AcDbEntity
8
CONNECTIONS
62
7
100
AcDbLine
10
-50.0
20
6.123233995736766e-15
30
0.0
11
-40.45084971874737
21
-29.38926261462365
31
0.0
0
LINE
5
A1
100
AcDbEntity
8
CONNECTIONS
62
7
100
AcDbLine
10
-50.0
20
6.123233995736766e-15
30
0.0
11
-15.450849718747378
21
-47.552825814757675
31
0.0
0
LINE
5
A1
100
AcDbEntity
8
CONNECTIONS
62
7
100
AcDbLine
10
-50.0
20
6.123233995736766e-15
30
0.0
11
15.450849718747362
21
-47.55282581475768
31
0.0
0
LINE
5
A1
100
AcDbEntity
8
CONNECTIONS
62
7
100
AcDbLine
10
-50.0
20
6.123233995736766e-15
30
0.0
11
40.450849718747364
21
-29.389262614623668
31
0.0
0
LINE
5
A1
100
AcDbEntity
8
CONNECTIONS
62
7
100
AcDbLine
10
-40.45084971874737
20
-29.38926261462365
30
0.0
11
-15.450849718747378
21
-47.552825814757675
31
0.0
0
LINE
5
A1
100
AcDbEntity
8
CONNECTIONS
62
7
100
AcDbLine
10
-40.45084971874737
20
-29.38926261462365
30
0.0
11
15.450849718747362
21
-47.55282581475768
31
0.0
0
LINE
5
A1
100
AcDbEntity
8
CONNECTIONS
62
7
100
AcDbLine
10
-40.45084971874737
20
-29.38926261462365
30
0.0
11
40.450849718747364
21
-29.389262614623668
31
0.0
0
LINE
5
A1
100
AcDbEntity
8
CONNECTIONS
62
7
100
AcDbLine
10
-15.450849718747378
20
-47.552825814757675
30
0.0
11
15.450849718747362
21
-47.55282581475768
31
0.0
0
LINE
5
A1
100
AcDbEntity
8
CONNECTIONS
62
7
100
AcDbLine
10
-15.450849718747378
20
-47.552825814757675
30
0.0
11
40.450849718747364
21
-29.389262614623668
31
0.0
0
LINE
5
A1
100
AcDbEntity
8
CONNECTIONS
62
7
100
AcDbLine
10
15.450849718747362
20
-47.55282581475768
30
0.0
11
40.450849718747364
21
-29.389262614623668
31
0.0
0
LINE
5
A1
100
AcDbEntity
8
CONNECTIONS
62
7
100
AcDbLine
10
85.6169994689359
20
4.779878414872004
30
0.0
11
50.0
21
0.0
31
0.0
0
LINE
5
A1
100
AcDbEntity
8
CONNECTIONS
62
7
100
AcDbLine
10
91.04291065114295
20
10.927209844669736
30
0.0
11
50.0
21
0.0
31
0.0
0
LINE
5
A1
100
AcDbEntity
8
CONNECTIONS
62
7
100
AcDbLine
10
91.72205480505066
20
51.72390187183019
30
0.0
11
40.45084971874737
21
29.389262614623657
31
0.0
0
LINE
5
A1
100
AcDbEntity
8
CONNECTIONS
62
7
100
AcDbLine
10
61.96119941544507
20
61.93545299718524
30
0.0
11
40.45084971874737
21
29.389262614623657
31
0.0
0
LINE
5
A1
100
AcDbEntity
8
CONNECTIONS
62
7
100
AcDbLine
10
59.439439410939386
20
62.00578963697698
30
0.0
11
40.45084971874737
21
29.389262614623657
31
0.0
0
LINE
5
A1
100
AcDbEntity
8
CONNECTIONS
62
7
100
AcDbLine
10
59.50522641965584
20
80.56851474717199
30
0.0
11
40.45084971874737
21
29.389262614623657
31
0.0
0
LINE
5
A1
100
AcDbEntity
8
CONNECTIONS
62
7
100
AcDbLine
10
43.8937170940398
20
79.67431448319986
30
0.0
11
15.450849718747373
21
47.552825814757675
31
0.0
0
LINE
5
A1
100
AcDbEntity
8
CONNECTIONS
62
7
100
AcDbLine
10
4.535438298135553
20
101.2467107913834
30
0.0
11
15.450849718747373
21
47.552825814757675
31
0.0
0
LINE
5
A1
100
AcDbEntity
8
CONNECTIONS
62
7
100
AcDbLine
10
0.729417763152135
20
102.67537961492182
30
0.0
11
15.450849718747373
21
47.552825814757675
31
0.0
0
LINE
5
A1
100
AcDbEntity
8
CONNECTIONS
62
7
100
AcDbLine
10
-36.128374780806816
20
77.1551827199268
30
0.0
11
-15.450849718747367
21
47.55282581475768
31
0.0
0
LINE
5
A1
100
AcDbEntity
8
CONNECTIONS
62
7
100
AcDbLine
10
-63.77188480989464
20
84.60092420053438
30
0.0
11
-40.450849718747364
21
29.38926261462366
31
0.0
0
LINE
5
A1
100
AcDbEntity
8
CONNECTIONS
62
7
100
AcDbLine
10
-55.61975844673147
20
70.32883055150909
30
0.0
11
-40.450849718747364
21
29.38926261462366
31
0.0
0
LINE
5
A1
100
AcDbEntity
8
CONNECTIONS
62
7
100
AcDbLine
10
-85.81857581504069
20
40.97280224944502
30
0.0
11
-40.450849718747364
21
29.38926261462366
31
0.0
0
LINE
5
A1
100
AcDbEntity
8
CONNECTIONS
62
7
100
AcDbLine
10
-73.4404185404364
20
48.30297194013226
30
0.0
11
-40.450849718747364
21
29.38926261462366
31
0.0
0
LINE
5
A1
100
AcDbEntity
8
CONNECTIONS
62
7
100
AcDbLine
10
-102.85606420937461
20
7.257370335263793
30
0.0
11
-50.0
21
6.123233995736766e-15
31
0.0
0
LINE
5
A1
100
AcDbEntity
8
CONNECTIONS
62
7
100
AcDbLine
10
-106.08633717010069
20
-13.09880950431754
30
0.0
11
-50.0
21
6.123233995736766e-15
31
0.0
0
LINE
5
A1
100
AcDbEntity
8
CONNECTIONS
62
7
100
AcDbLine
10
-111.34230250260681
20
-25.35825173010601
30
0.0
11
-50.0
21
6.123233995736766e-15
31
0.0
0
LINE
5
A1
100
AcDbEntity
8
CONNECTIONS
62
7
100
AcDbLine
10
-94.67754525970369
20
-36.7538245058811
30
0.0
11
-40.45084971874737
21
-29.38926261462365
31
0.0
0
LINE
5
A1
100
AcDbEntity
8
CONNECTIONS
62
7
100
AcDbLine
10
-75.05508675176404
20
-71.34770287403153
30
0.0
11
-40.45084971874737
21
-29.38926261462365
31
0.0
0
LINE
5
A1
100
AcDbEntity
8
CONNECTIONS
62
7
100
AcDbLine
10
-56.78727992237073
20
-85.11581950200048
30
0.0
11
-15.450849718747378
21
-47.552825814757675
31
0.0
0
LINE
5
A1
100
AcDbEntity
8
CONNECTIONS
62
7
100
AcDbLine
10
-36.92867383918532
20
-78.08243907465126
30
0.0
11
-15.450849718747378
21
-47.552825814757675
31
0.0
0
LINE
5
A1
100
AcDbEntity
8
CONNECTIONS
62
7
100
AcDbLine
10
-38.45611041069506
20
-85.42468636513205
30
0.0
11
-15.450849718747378
21
-47.552825814757675
31
0.0
0
LINE
5
A1
100
AcDbEntity
8
CONNECTIONS
62
7
100
AcDbLine
10
-24.783341100964066
20
-88.58211987421615
30
0.0
11
-15.450849718747378
21
-47.552825814757675
31
0.0
0
LINE
5
A1
100
AcDbEntity
8
CONNECTIONS
62
7
100
AcDbLine
10
-5.119854347905023
20
-93.19868485628493
30
0.0
11
-15.450849718747378
21
-47.552825814757675
31
0.0
0
LINE
5
A1
100
AcDbEntity
8
CONNECTIONS
62
7
100
AcDbLine
10
34.55496994790933
20
-89.50637089937995
30
0.0
11
15.450849718747362
21
-47.55282581475768
31
0.0
0
LINE
5
A1
100
AcDbEntity
8
CONNECTIONS
62
7
100
AcDbLine
10
41.47777318899369
20
-81.31779672719497
30
0.0
11
15.450849718747362
21
-47.55282581475768
31
0.0
0
LINE
5
A1
100
AcDbEntity
8
CONNECTIONS
62
7
100
AcDbLine
10
67.52711208443745
20
-90.72826001794654
30
0.0
11
40.450849718747364
21
-29.389262614623668
31
0.0
0
LINE
5
A1
100
AcDbEntity
8
CONNECTIONS
62
7
100
AcDbLine
10
86.99630066225598
20
-55.65202892835435
30
0.0
11
40.450849718747364
21
-29.389262614623668
31
0.0
0
LINE
5
A1
100
AcDbEntity
8
CONNECTIONS
62
7
100
AcDbLine
10
91.08886965646943
20
-55.90015914998722
30
0.0
11
40.450849718747364
21
-29.389262614623668
31
0.0
0
LINE
5
A1
100
AcDbEntity
8
CONNECTIONS
62
7
100
AcDbLine
10
90.73429838864807
20
-32.51303796841083
30
0.0
11
40.450849718747364
21
-29.389262614623668
31
0.0
0
LINE
5
A1
100
AcDbEntity
8
CONNECTIONS
62
7
100
AcDbLine
10
151.25331191934018
20
30.00122350173248
30
0.0
11
50.0
21
0.0
31
0.0
0
LINE
5
A1
100
AcDbEntity
8
CONNECTIONS
62
7
100
AcDbLine
10
152.36655593294876
20
31.251161123103333
30
0.0
11
50.0
21
0.0
31
0.0
0
LINE
5
A1
100
AcDbEntity
8
CONNECTIONS
62
7
100
AcDbLine
10
139.1926316493344
20
75.3522982695624
30
0.0
11
40.45084971874737
21
29.389262614623657
31
0.0
0
LINE
5
A1
100
AcDbEntity
8
CONNECTIONS
62
7
100
AcDbLine
10
123.57562778784224
20
56.70100153926922
30
0.0
11
40.45084971874737
21
29.389262614623657
31
0.0
0
LINE
5
A1
100
AcDbEntity
8
CONNECTIONS
62
7
100
AcDbLine
10
114.36066005360087
20
85.90609516506579
30
0.0
11
40.45084971874737
21
29.389262614623657
31
0.0
0
LINE
5
A1
100
AcDbEntity
8
CONNECTIONS
62
7
100
AcDbLine
10
115.85427205346352
20
115.06748971592573
30
0.0
11
40.45084971874737
21
29.389262614623657
31
0.0
0
LINE
5
A1
100
AcDbEntity
8
CONNECTIONS
62
7
100
AcDbLine
10
48.595213023127194
20
136.02027811139777
30
0.0
11
15.450849718747373
21
47.552825814757675
31
0.0
0
LINE
5
A1
100
AcDbEntity
8
CONNECTIONS
62
7
100
AcDbLine
10
36.61819067128186
20
142.23079361227022
30
0.0
11
15.450849718747373
21
47.552825814757675
31
0.0
0
LINE
5
A1
100
AcDbEntity
8
CONNECTIONS
62
7
100
AcDbLine
10
-4.637661931852228
20
148.69325007586718
30
0.0
11
-15.450849718747367
21
47.55282581475768
31
0.0
0
LINE
5
A1
100
AcDbEntity
8
CONNECTIONS
62
7
100
AcDbLine
10
6.998650236197496
20
142.22673560898755
30
0.0
11
15.450849718747373
21
47.552825814757675
31
0.0
0
LINE
5
A1
100
AcDbEntity
8
CONNECTIONS
62
7
100
AcDbLine
10
-35.2037990907405
20
138.47754112555165
30
0.0
11
-15.450849718747367
21
47.55282581475768
31
0.0
0
LINE
5
A1
100
AcDbEntity
8
CONNECTIONS
62
7
100
AcDbLine
10
-68.64505663360347
20
146.66526137513847
30
0.0
11
-15.450849718747367
21
47.55282581475768
31
0.0
0
LINE
5
A1
100
AcDbEntity
8
CONNECTIONS
62
7
100
AcDbLine
10
-73.17925455978114
20
121.20060349316063
30
0.0
11
-15.450849718747367
21
47.55282581475768
31
0.0
0
LINE
5
A1
100
AcDbEntity
8
CONNECTIONS
62
7
100
AcDbLine
10
-123.28269013691592
20
85.9488023822173
30
0.0
11
-40.450849718747364
21
29.38926261462366
31
0.0
0
LINE
5
A1
100
AcDbEntity
8
CONNECTIONS
62
7
100
AcDbLine
10
-95.82439322724655
20
97.08926954674355
30
0.0
11
-40.450849718747364
21
29.38926261462366
31
0.0
0
LINE
5
A1
100
AcDbEntity
8
CONNECTIONS
62
7
100
AcDbLine
10
-126.5253642297908
20
87.48122556319038
30
0.0
11
-40.450849718747364
21
29.38926261462366
31
0.0
0
LINE
5
A1
100
AcDbEntity
8
CONNECTIONS
62
7
100
AcDbLine
10
-145.9522340615882
20
22.424054881316366
30
0.0
11
-50.0
21
6.123233995736766e-15
31
0.0
0
LINE
5
A1
100
AcDbEntity
8
CONNECTIONS
62
7
100
AcDbLine
10
-141.3613761150527
20
38.264180579386974
30
0.0
11
-50.0
21
6.123233995736766e-15
31
0.0
0
LINE
5
A1
100
AcDbEntity
8
CONNECTIONS
62
7
100
AcDbLine
10
-144.65060529231394
20
-42.88349770064157
30
0.0
11
-50.0
21
6.123233995736766e-15
31
0.0
0
LINE
5
A1
100
AcDbEntity
8
CONNECTIONS
62
7
100
AcDbLine
10
-144.26927164490806
20
-71.06715396966577
30
0.0
11
-40.45084971874737
21
-29.38926261462365
31
0.0
0
LINE
5
A1
100
AcDbEntity
8
CONNECTIONS
62
7
100
AcDbLine
10
-151.6203830450997
20
-39.2632414465045
30
0.0
11
-50.0
21
6.123233995736766e-15
31
0.0
0
LINE
5
A1
100
AcDbEntity
8
CONNECTIONS
62
7
100
AcDbLine
10
-115.47695617400235
20
-97.46299652311215
30
0.0
11
-40.45084971874737
21
-29.38926261462365
31
0.0
0
LINE
5
A1
100
AcDbEntity
8
CONNECTIONS
62
7
100
AcDbLine
10
-116.50081719844833
20
-101.06482565712449
30
0.0
11
-40.45084971874737
21
-29.38926261462365
31
0.0
0
LINE
5
A1
100
AcDbEntity
8
CONNECTIONS
62
7
100
AcDbLine
10
-99.69425913781907
20
-109.44300784541497
30
0.0
11
-40.45084971874737
21
-29.38926261462365
31
0.0
0
LINE
5
A1
100
AcDbEntity
8
CONNECTIONS
62
7
100
AcDbLine
10
-67.07828134687898
20
-149.23203920640938
30
0.0
11
-15.450849718747378
21
-47.552825814757675
31
0.0
0
LINE
5
A1
100
AcDbEntity
8
CONNECTIONS
62
7
100
AcDbLine
10
-10.573383358631597
20
-142.50996908386884
30
0.0
11
-15.450849718747378
21
-47.552825814757675
31
0.0
0
LINE
5
A1
100
AcDbEntity
8
CONNECTIONS
62
7
100
AcDbLine
10
-6.26433402159667
20
-140.21969617901468
30
0.0
11
-15.450849718747378
21
-47.552825814757675
31
0.0
0
LINE
5
A1
100
AcDbEntity
8
CONNECTIONS
62
7
100
AcDbLine
10
47.56531173856584
20
-153.93428421660474
30
0.0
11
15.450849718747362
21
-47.55282581475768
31
0.0
0
LINE
5
A1
100
AcDbEntity
8
CONNECTIONS
62
7
100
AcDbLine
10
35.67769008857038
20
-149.98341291505918
30
0.0
11
15.450849718747362
21
-47.55282581475768
31
0.0
0
LINE
5
A1
100
AcDbEntity
8
CONNECTIONS
62
7
100
AcDbLine
10
71.43828384625637
20
-119.9191124640416
30
0.0
11
15.450849718747362
21
-47.55282581475768
31
0.0
0
LINE
5
A1
100
AcDbEntity
8
CONNECTIONS
62
7
100
AcDbLine
10
106.12941182934117
20
-107.66779858920947
30
0.0
11
40.450849718747364
21
-29.389262614623668
31
0.0
0
LINE
5
A1
100
AcDbEntity
8
CONNECTIONS
62
7
100
AcDbLine
10
123.98441739957144
20
-86.03415892957636
30
0.0
11
40.450849718747364
21
-29.389262614623668
31
0.0
0
LINE
5
A1
100
AcDbEntity
8
CONNECTIONS
62
7
100
AcDbLine
10
107.0374485380483
20
-97.40748485904997
30
0.0
11
40.450849718747364
21
-29.389262614623668
31
0.0
0
LINE
5
A1
100
AcDbEntity
8
CONNECTIONS
62
7
100
AcDbLine
10
138.74679919574874
20
-85.30490208392668
30
0.0
11
40.450849718747364
21
-29.389262614623668
31
0.0
0
LINE
5
A1
100
AcDbEntity
8
CONNECTIONS
62
7
100
AcDbLine
10
159.88713146151824
20
-4.482943038628464
30
0.0
11
50.0
21
0.0
31
0.0
0
LINE
5
A1
100
AcDbEntity
8
CONNECTIONS
62
7
100
AcDbLine
10
186.18452554210498
20
-14.363550715919041
30
0.0
11
50.0
21
0.0
31
0.0
0
LINE
5
A1
100
AcDbEntity
8
CONNECTIONS
62
7
100
AcDbLine
10
199.67991443150882
20
75.30678948267686
30
0.0
11
40.45084971874737
21
29.389262614623657
31
0.0
0
LINE
5
A1
100
AcDbEntity
8
CONNECTIONS
62
7
100
AcDbLine
10
193.21924762626136
20
49.98384285893931
30
0.0
11
50.0
21
0.0
31
0.0
0
LINE
5
A1
100
AcDbEntity
8
CONNECTIONS
62
7
100
AcDbLine
10
186.58312338281743
20
91.51549700177667
30
0.0
11
40.45084971874737
21
29.389262614623657
31
0.0
0
LINE
5
A1
100
AcDbEntity
8
CONNECTIONS
62
7
100
AcDbLine
10
110.75752912708764
20
152.9632339124355
30
0.0
11
15.450849718747373
21
47.552825814757675
31
0.0
0
LINE
5
A1
100
AcDbEntity
8
CONNECTIONS
62
7
100
AcDbLine
10
102.46738191415965
20
173.49441237033997
30
0.0
11
15.450849718747373
21
47.552825814757675
31
0.0
0
LINE
5
A1
100
AcDbEntity
8
CONNECTIONS
62
7
100
AcDbLine
10
83.81449404823871
20
193.82766266336614
30
0.0
11
15.450849718747373
21
47.552825814757675
31
0.0
0
LINE
5
A1
100
AcDbEntity
8
CONNECTIONS
62
7
100
AcDbLine
10
25.842474513719026
20
189.6008945739986
30
0.0
11
15.450849718747373
21
47.552825814757675
31
0.0
0
LINE
5
A1
100
AcDbEntity
8
CONNECTIONS
62
7
100
AcDbLine
10
-24.858214512307224
20
205.3991807851711
30
0.0
11
-15.450849718747367
21
47.55282581475768
31
0.0
0
LINE
5
A1
100
AcDbEntity
8
CONNECTIONS
62
7
100
AcDbLine
10
-37.586298976762116
20
190.68238330875124
30
0.0
11
-15.450849718747367
21
47.55282581475768
31
0.0
0
LINE
5
A1
100
AcDbEntity
8
CONNECTIONS
62
7
100
AcDbLine
10
-135.09655076096797
20
153.5176724455795
30
0.0
11
-40.450849718747364
21
29.38926261462366
31
0.0
0
LINE
5
A1
100
AcDbEntity
8
CONNECTIONS
62
7
100
AcDbLine
10
-130.44843658504428
20
152.29705678086515
30
0.0
11
-40.450849718747364
21
29.38926261462366
31
0.0
0
LINE
5
A1
100
AcDbEntity
8
CONNECTIONS
62
7
100
AcDbLine
10
-136.32242767179736
20
134.83610851200072
30
0.0
11
-40.450849718747364
21
29.38926261462366
31
0.0
0
LINE
5
A1
100
AcDbEntity
8
CONNECTIONS
62
7
100
AcDbLine
10
-179.40659582877473
20
94.23373377616672
30
0.0
11
-40.450849718747364
21
29.38926261462366
31
0.0
0
LINE
5
A1
100
AcDbEntity
8
CONNECTIONS
62
7
100
AcDbLine
10
-182.03617314439606
20
59.79875217033366
30
0.0
11
-40.450849718747364
21
29.38926261462366
31
0.0
0
LINE
5
A1
100
AcDbEntity
8
CONNECTIONS
62
7
100
AcDbLine
10
-200.9377891467968
20
34.82397976830154
30
0.0
11
-50.0
21
6.123233995736766e-15
31
0.0
0
LINE
5
A1
100
AcDbEntity
8
CONNECTIONS
62
7
100
AcDbLine
10
-211.08103755268647
20
-21.39543385879818
30
0.0
11
-50.0
21
6.123233995736766e-15
31
0.0
0
LINE
5
A1
100
AcDbEntity
8
CONNECTIONS
62
7
100
AcDbLine
10
-158.2709569274312
20
-99.83155545552312
30
0.0
11
-40.45084971874737
21
-29.38926261462365
31
0.0
0
LINE
5
A1
100
AcDbEntity
8
CONNECTIONS
62
7
100
AcDbLine
10
-177.603289480258
20
-102.52074446642104
30
0.0
11
-40.45084971874737
21
-29.38926261462365
31
0.0
0
LINE
5
A1
100
AcDbEntity
8
CONNECTIONS
62
7
100
AcDbLine
10
-141.63717162992535
20
-125.09328085994301
30
0.0
11
-40.45084971874737
21
-29.38926261462365
31
0.0
0
LINE
5
A1
100
AcDbEntity
8
CONNECTIONS
62
7
100
AcDbLine
10
-69.1951243218041
20
-189.9186517933186
30
0.0
11
-15.450849718747378
21
-47.552825814757675
31
0.0
0
LINE
5
A1
100
AcDbEntity
8
CONNECTIONS
62
7
100
AcDbLine
10
-66.60615627097438
20
-197.61568873272893
30
0.0
11
-15.450849718747378
21
-47.552825814757675
31
0.0
0
LINE
5
A1
100
AcDbEntity
8
CONNECTIONS
62
7
100
AcDbLine
10
3.485844348976522
20
-190.68043759266473
30
0.0
11
15.450849718747362
21
-47.55282581475768
31
0.0
0
LINE
5
A1
100
AcDbEntity
8
CONNECTIONS
62
7
100
AcDbLine
10
-11.178747767385206
20
-197.61560751300112
30
0.0
11
-15.450849718747378
21
-47.552825814757675
31
0.0
0
LINE
5
A1
100
AcDbEntity
8
CONNECTIONS
62
7
100
AcDbLine
10
55.6841474497855
20
-191.06164024863003
30
0.0
11
15.450849718747362
21
-47.55282581475768
31
0.0
0
LINE
5
A1
100
AcDbEntity
8
CONNECTIONS
62
7
100
AcDbLine
10
118.43082629120578
20
-167.5755462206054
30
0.0
11
15.450849718747362
21
-47.55282581475768
31
0.0
0
LINE
5
A1
100
AcDbEntity
8
CONNECTIONS
62
7
100
AcDbLine
10
150.29537188084524
20
-112.86034303780514
30
0.0
11
40.450849718747364
21
-29.389262614623668
31
0.0
0
LINE
5
A1
100
AcDbEntity
8
CONNECTIONS
62
7
100
AcDbLine
10
153.31590300674318
20
-120.78537344122441
30
0.0
11
40.450849718747364
21
-29.389262614623668
31
0.0
0
LINE
5
A1
100
AcDbEntity
8
CONNECTIONS
62
7
100
AcDbLine
10
185.26928393957962
20
-52.115493955151315
30
0.0
11
50.0
21
0.0
31
0.0
0
LINE
5
A1
100
AcDbEntity
8
CONNECTIONS
62
7
100
AcDbLine
10
187.53318126824732
20
-64.93877892390604
30
0.0
11
40.450849718747364
21
-29.389262614623668
31
0.0
0
LINE
5
A1
100
AcDbEntity
8
CONNECTIONS
62
7
100
AcDbLine
10
85.6169994689359
20
4.779878414872004
30
0.0
11
91.04291065114295
21
10.927209844669736
31
0.0
0
LINE
5
A1
100
AcDbEntity
8
CONNECTIONS
62
7
100
AcDbLine
10
59.50522641965584
20
80.56851474717199
30
0.0
11
43.8937170940398
21
79.67431448319986
31
0.0
0
LINE
5
A1
100
AcDbEntity
8
CONNECTIONS
62
7
100
AcDbLine
10
-63.77188480989464
20
84.60092420053438
30
0.0
11
-55.61975844673147
21
70.32883055150909
31
0.0
0
LINE
5
A1
100
AcDbEntity
8
CONNECTIONS
62
7
100
AcDbLine
10
-106.08633717010069
20
-13.09880950431754
30
0.0
11
-111.34230250260681
21
-25.35825173010601
31
0.0
0
LINE
5
A1
100
AcDbEntity
8
CONNECTIONS
62
7
100
AcDbLine
10
-36.92867383918532
20
-78.08243907465126
30
0.0
11
-38.45611041069506
21
-85.42468636513205
31
0.0
0
LINE
5
A1
100
AcDbEntity
8
CONNECTIONS
62
7
100
AcDbLine
10
41.47777318899369
20
-81.31779672719497
30
0.0
11
67.52711208443745
21
-90.72826001794654
31
0.0
0
LINE
5
A1
100
AcDbEntity
8
CONNECTIONS
62
7
100
AcDbLine
10
151.25331191934018
20
30.00122350173248
30
0.0
11
152.36655593294876
21
31.251161123103333
31
0.0
0
LINE
5
A1
100
AcDbEntity
8
CONNECTIONS
62
7
100
AcDbLine
10
115.85427205346352
20
115.06748971592573
30
0.0
11
48.595213023127194
21
136.02027811139777
31
0.0
0
LINE
5
A1
100
AcDbEntity
8
CONNECTIONS
62
7
100
AcDbLine
10
-35.2037990907405
20
138.47754112555165
30
0.0
11
-68.64505663360347
21
146.66526137513847
31
0.0
0
LINE
5
A1
100
AcDbEntity
8
CONNECTIONS
62
7
100
AcDbLine
10
-126.5253642297908
20
87.48122556319038
30
0.0
11
-145.9522340615882
21
22.424054881316366
31
0.0
0
CIRCLE
5
A0
100
AcDbEntity
8
HUB_NODES
62
7
100
AcDbCircle
10
50.0
20
0.0
30
0.0
40
5.0
0
TEXT
5
A2
100
AcDbEntity
8
LABELS
62
7
100
AcDbText
10
56.0
20
2.0
30
0.0
40
2.0
1
H0
50
0.0
0
CIRCLE
5
A0
100
AcDbEntity
8
HUB_NODES
62
7
100
AcDbCircle
10
40.45084971874737
20
29.389262614623657
30
0.0
40
5.0
0
TEXT
5
A2
100
AcDbEntity
8
LABELS
62
7
100
AcDbText
10
46.45084971874737
20
31.389262614623657
30
0.0
40
2.0
1
H1
50
0.0
0
CIRCLE
5
A0
100
AcDbEntity
8
HUB_NODES
62
7
100
AcDbCircle
10
15.450849718747373
20
47.552825814757675
30
0.0
40
5.0
0
TEXT
5
A2
100
AcDbEntity
8
LABELS
62
7
100
AcDbText
10
21.45084971874737
20
49.552825814757675
30
0.0
40
2.0
1
H2
50
0.0
0
CIRCLE
5
A0
100
AcDbEntity
8
HUB_NODES
62
7
100
AcDbCircle
10
-15.450849718747367
20
47.55282581475768
30
0.0
40
5.0
0
TEXT
5
A2
100
AcDbEntity
8
LABELS
62
7
100
AcDbText
10
-9.450849718747367
20
49.55282581475768
30
0.0
40
2.0
1
H3
50
0.0
0
CIRCLE
5
A0
100
AcDbEntity
8
HUB_NODES
62
7
100
AcDbCircle
10
-40.450849718747364
20
29.38926261462366
30
0.0
40
5.0
0
TEXT
5
A2
100
AcDbEntity
8
LABELS
62
7
100
AcDbText
10
-34.450849718747364
20
31.38926261462366
30
0.0
40
2.0
1
H4
50
0.0
0
CIRCLE
5
A0
100
AcDbEntity
8
HUB_NODES
62
7
100
AcDbCircle
10
-50.0
20
6.123233995736766e-15
30
0.0
40
5.0
0
TEXT
5
A2
100
AcDbEntity
8
LABELS
62
7
100
AcDbText
10
-44.0
20
2.000000000000006
30
0.0
40
2.0
1
H5
50
0.0
0
CIRCLE
5
A0
100
AcDbEntity
8
HUB_NODES
62
7
100
AcDbCircle
10
-40.45084971874737
20
-29.38926261462365
30
0.0
40
5.0
0
TEXT
5
A2
100
AcDbEntity
8
LABELS
62
7
100
AcDbText
10
-34.45084971874737
20
-27.38926261462365
30
0.0
40
2.0
1
H6
50
0.0
0
CIRCLE
5
A0
100
AcDbEntity
8
HUB_NODES
62
7
100
AcDbCircle
10
-15.450849718747378
20
-47.552825814757675
30
0.0
40
5.0
0
TEXT
5
A2
100
AcDbEntity
8
LABELS
62
7
100
AcDbText
10
-9.450849718747378
20
-45.552825814757675
30
0.0
40
2.0
1
H7
50
0.0
0
CIRCLE
5
A0
100
AcDbEntity
8
HUB_NODES
62
7
100
AcDbCircle
10
15.450849718747362
20
-47.55282581475768
30
0.0
40
5.0
0
TEXT
5
A2
100
AcDbEntity
8
LABELS
62
7
100
AcDbText
10
21.450849718747364
20
-45.55282581475768
30
0.0
40
2.0
1
H8
50
0.0
0
CIRCLE
5
A0
100
AcDbEntity
8
HUB_NODES
62
7
100
AcDbCircle
10
40.450849718747364
20
-29.389262614623668
30
0.0
40
5.0
0
TEXT
5
A2
100
AcDbEntity
8
LABELS
62
7
100
AcDbText
10
46.450849718747364
20
-27.389262614623668
30
0.0
40
2.0
1
H9
50
0.0
0
CIRCLE
5
A0
100
AcDbEntity
8
STANDARD_NODES
62
7
100
AcDbCircle
10
85.6169994689359
20
4.779878414872004
30
0.0
40
2.0
0
TEXT
5
A2
100
AcDbEntity
8
LABELS
62
7
100
AcDbText
10
88.6169994689359
20
5.779878414872004
30
0.0
40
1.5
1
N0
50
0.0
0
CIRCLE
5
A0
100
AcDbEntity
8
STANDARD_NODES
62
7
100
AcDbCircle
10
59.50522641965584
20
80.56851474717199
30
0.0
40
2.0
0
CIRCLE
5
A0
100
AcDbEntity
8
STANDARD_NODES
62
7
100
AcDbCircle
10
-63.77188480989464
20
84.60092420053438
30
0.0
40
2.0
0
CIRCLE
5
A0
100
AcDbEntity
8
STANDARD_NODES
62
7
100
AcDbCircle
10
-106.08633717010069
20
-13.09880950431754
30
0.0
40
2.0
0
CIRCLE
5
A0
100
AcDbEntity
8
STANDARD_NODES
62
7
100
AcDbCircle
10
-36.92867383918532
20
-78.08243907465126
30
0.0
40
2.0
0
TEXT
5
A2
100
AcDbEntity
8
LABELS
62
7
100
AcDbText
10
-33.92867383918532
20
-77.08243907465126
30
0.0
40
1.5
1
N20
50
0.0
0
CIRCLE
5
A0
100
AcDbEntity
8
STANDARD_NODES
62
7
100
AcDbCircle
10
41.47777318899369
20
-81.31779672719497
30
0.0
40
2.0
0
CIRCLE
5
A0
100
AcDbEntity
8
STANDARD_NODES
62
7
100
AcDbCircle
10
151.25331191934018
20
30.00122350173248
30
0.0
40
2.0
0
CIRCLE
5
A0
100
AcDbEntity
8
STANDARD_NODES
62
7
100
AcDbCircle
10
115.85427205346352
20
115.06748971592573
30
0.0
40
2.0
0
CIRCLE
5
A0
100
AcDbEntity
8
STANDARD_NODES
62
7
100
AcDbCircle
10
-35.2037990907405
20
138.47754112555165
30
0.0
40
2.0
0
TEXT
5
A2
100
AcDbEntity
8
LABELS
62
7
100
AcDbText
10
-32.2037990907405
20
139.47754112555165
30
0.0
40
1.5
1
N40
50
0.0
0
CIRCLE
5
A0
100
AcDbEntity
8
STANDARD_NODES
62
7
100
AcDbCircle
10
-126.5253642297908
20
87.48122556319038
30
0.0
40
2.0
0
CIRCLE
5
A0
100
AcDbEntity
8
STANDARD_NODES
62
7
100
AcDbCircle
10
-151.6203830450997
20
-39.2632414465045
30
0.0
40
2.0
0
CIRCLE
5
A0
100
AcDbEntity
8
STANDARD_NODES
62
7
100
AcDbCircle
10
-10.573383358631597
20
-142.50996908386884
30
0.0
40
2.0
0
CIRCLE
5
A0
100
AcDbEntity
8
STANDARD_NODES
62
7
100
AcDbCircle
10
106.12941182934117
20
-107.66779858920947
30
0.0
40
2.0
0
TEXT
5
A2
100
AcDbEntity
8
LABELS
62
7
100
AcDbText
10
109.12941182934117
20
-106.66779858920947
30
0.0
40
1.5
1
N60
50
0.0
0
CIRCLE
5
A0
100
AcDbEntity
8
STANDARD_NODES
62
7
100
AcDbCircle
10
186.18452554210498
20
-14.363550715919041
30
0.0
40
2.0
0
CIRCLE
5
A0
100
AcDbEntity
8
STANDARD_NODES
62
7
100
AcDbCircle
10
102.46738191415965
20
173.49441237033997
30
0.0
40
2.0
0
CIRCLE
5
A0
100
AcDbEntity
8
STANDARD_NODES
62
7
100
AcDbCircle
10
-135.09655076096797
20
153.5176724455795
30
0.0
40
2.0
0
CIRCLE
5
A0
100
AcDbEntity
8
STANDARD_NODES
62
7
100
AcDbCircle
10
-200.9377891467968
20
34.82397976830154
30
0.0
40
2.0
0
TEXT
5
A2
100
AcDbEntity
8
LABELS
62
7
100
AcDbText
10
-197.9377891467968
20
35.82397976830154
30
0.0
40
1.5
1
N80
50
0.0
0
CIRCLE
5
A0
100
AcDbEntity
8
STANDARD_NODES
62
7
100
AcDbCircle
10
-69.1951243218041
20
-189.9186517933186
30
0.0
40
2.0
0
CIRCLE
5
A0
100
AcDbEntity
8
STANDARD_NODES
62
7
100
AcDbCircle
10
118.43082629120578
20
-167.5755462206054
30
0.0
40
2.0
0
TEXT
5
A2
100
AcDbEntity
8
TITLE
62
7
100
AcDbText
10
-100
20
250
30
0.0
40
8.0
1
AEONCOSMA P2P NETWORK
50
0.0
0
TEXT
5
A2
100
AcDbEntity
8
TITLE
62
7
100
AcDbText
10
-100
20
240
30
0.0
40
4.0
1
Rede P2P Massiva - 105 Nós Ativos
50
0.0
0
TEXT
5
A2
100
AcDbEntity
8
TITLE
62
7
100
AcDbText
10
-100
20
230
30
0.0
40
3.0
1
Desenvolvido por: Luiz H. P. Cruz
50
0.0
0
TEXT
5
A2
100
AcDbEntity
8
TITLE
62
7
100
AcDbText
10
-100
20
220
30
0.0
40
2.5
1
Data: 03/08/2025 14:55
50
0.0
0
TEXT
5
A2
100
AcDbEntity
8
STATS
62
7
100
AcDbText
10
-100
20
200
30
0.0
40
2.5
1
Total de Nós: 105
50
0.0
0
TEXT
5
A2
100
AcDbEntity
8
STATS
62
7
100
AcDbText
10
-100
20
192
30
0.0
40
2.5
1
Nós Hub: 10
50
0.0
0
TEXT
5
A2
100
AcDbEntity
8
STATS
62
7
100
AcDbText
10
-100
20
184
30
0.0
40
2.5
1
Nós Padrão: 95
50
0.0
0
TEXT
5
A2
100
AcDbEntity
8
STATS
62
7
100
AcDbText
10
-100
20
176
30
0.0
40
2.5
1
Conexões: 1131
50
0.0
0
TEXT
5
A2
100
AcDbEntity
8
STATS
62
7
100
AcDbText
10
-100
20
168
30
0.0
40
2.5
1
Disponibilidade: 100.0%
50
0.0
0
TEXT
5
A2
100
AcDbEntity
8
STATS
62
7
100
AcDbText
10
-100
20
160
30
0.0
40
2.5
1
Throughput: 72.6 msg/s
50
0.0
0
TEXT
5
A2
100
AcDbEntity
8
STATS
62
7
100
AcDbText
10
-100
20
152
30
0.0
40
2.5
1
Performance: ÓTIMO
50
0.0
0
TEXT
5
A2
100
AcDbEntity
8
TITLE
62
7
100
AcDbText
10
150
20
200
30
0.0
40
4.0
1
LEGENDA
50
0.0
0
CIRCLE
5
A0
100
AcDbEntity
8
HUB_NODES
62
7
100
AcDbCircle
10
150
20
185
30
0.0
40
5.0
0
TEXT
5
A2
100
AcDbEntity
8
LABELS
62
7
100
AcDbText
10
160
20
183
30
0.0
40
2.5
1
Nós Hub (10 unidades)
50
0.0
0
CIRCLE
5
A0
100
AcDbEntity
8
STANDARD_NODES
62
7
100
AcDbCircle
10
150
20
170
30
0.0
40
2.0
0
TEXT
5
A2
100
AcDbEntity
8
LABELS
62
7
100
AcDbText
10
160
20
168
30
0.0
40
2.5
1
Nós Padrão (95 unidades)
50
0.0
0
LINE
5
A1
100
AcDbEntity
8
CONNECTIONS
62
7
100
AcDbLine
10
150
20
155
30
0.0
11
165
21
155
31
0.0
0
TEXT
5
A2
100
AcDbEntity
8
LABELS
62
7
100
AcDbText
10
170
20
153
30
0.0
40
2.5
1
Conexões P2P
50
0.0
0
LINE
5
A1
100
AcDbEntity
8
BORDER
62
7
100
AcDbLine
10
-120
20
-250
30
0.0
11
220
21
-250
31
0.0
0
LINE
5
A1
100
AcDbEntity
8
BORDER
62
7
100
AcDbLine
10
220
20
-250
30
0.0
11
220
21
270
31
0.0
0
LINE
5
A1
100
AcDbEntity
8
BORDER
62
7
100
AcDbLine
10
220
20
270
30
0.0
11
-120
21
270
31
0.0
0
LINE
5
A1
100
AcDbEntity
8
BORDER
62
7
100
AcDbLine
10
-120
20
270
30
0.0
11
-120
21
-250
31
0.0
0
ENDSEC
0
EOF
