0
SECTION
2
HEADER
9
$ACADVER
1
AC1015
9
$INSBASE
10
0.0
20
0.0
30
0.0
0
ENDSEC
0
SECTION
2
TABLES
0
TABLE
2
LAYER
5
2
100
AcDbSymbolTable
70
7
0
LAYER
5
10
100
AcDbSymbolTableRecord
100
AcDbLayerTableRecord
2
0
70
0
6
CONTINUOUS
0
LAYER
5
11
100
AcDbSymbolTableRecord
100
AcDbLayerTableRecord
2
SERVERS
70
0
62
1
6
CONTINUOUS
0
LAYER
5
11
100
AcDbSymbolTableRecord
100
AcDbLayerTableRecord
2
NETWORK_EQUIPMENT
70
0
62
5
6
CONTINUOUS
0
LAYER
5
11
100
AcDbSymbolTableRecord
100
AcDbLayerTableRecord
2
CABLES
70
0
62
8
6
CONTINUOUS
0
LAYER
5
11
100
AcDbSymbolTableRecord
100
AcDbLayerTableRecord
2
ROOM_OUTLINE
70
0
62
7
6
CONTINUOUS
0
LAYER
5
11
100
AcDbSymbolTableRecord
100
AcDbLayerTableRecord
2
DIMENSIONS
70
0
62
3
6
CONTINUOUS
0
LAYER
5
11
100
AcDbSymbolTableRecord
100
AcDbLayerTableRecord
2
ANNOTATIONS
70
0
62
2
6
CONTINUOUS
0
ENDTAB
0
ENDSEC
0
SECTION
2
ENTITIES
0
LINE
5
A1
100
AcDbEntity
8
ROOM_OUTLINE
62
7
100
AcDbLine
10
0
20
0
30
0.0
11
3000
21
0
31
0.0
0
LINE
5
A1
100
AcDbEntity
8
ROOM_OUTLINE
62
7
100
AcDbLine
10
3000
20
0
30
0.0
11
3000
21
2000
31
0.0
0
LINE
5
A1
100
AcDbEntity
8
ROOM_OUTLINE
62
7
100
AcDbLine
10
3000
20
2000
30
0.0
11
0
21
2000
31
0.0
0
LINE
5
A1
100
AcDbEntity
8
ROOM_OUTLINE
62
7
100
AcDbLine
10
0
20
2000
30
0.0
11
0
21
0
31
0.0
0
LINE
5
A1
100
AcDbEntity
8
SERVERS
62
7
100
AcDbLine
10
300
20
300
30
0.0
11
360
21
300
31
0.0
0
LINE
5
A1
100
AcDbEntity
8
SERVERS
62
7
100
AcDbLine
10
360
20
300
30
0.0
11
360
21
400
31
0.0
0
LINE
5
A1
100
AcDbEntity
8
SERVERS
62
7
100
AcDbLine
10
360
20
400
30
0.0
11
300
21
400
31
0.0
0
LINE
5
A1
100
AcDbEntity
8
SERVERS
62
7
100
AcDbLine
10
300
20
400
30
0.0
11
300
21
300
31
0.0
0
TEXT
5
A2
100
AcDbEntity
8
ANNOTATIONS
62
7
100
AcDbText
10
310
20
410
30
0.0
40
3.0
1
HUB-01
50
0.0
0
LINE
5
A1
100
AcDbEntity
8
SERVERS
62
7
100
AcDbLine
10
560
20
300
30
0.0
11
620
21
300
31
0.0
0
LINE
5
A1
100
AcDbEntity
8
SERVERS
62
7
100
AcDbLine
10
620
20
300
30
0.0
11
620
21
400
31
0.0
0
LINE
5
A1
100
AcDbEntity
8
SERVERS
62
7
100
AcDbLine
10
620
20
400
30
0.0
11
560
21
400
31
0.0
0
LINE
5
A1
100
AcDbEntity
8
SERVERS
62
7
100
AcDbLine
10
560
20
400
30
0.0
11
560
21
300
31
0.0
0
TEXT
5
A2
100
AcDbEntity
8
ANNOTATIONS
62
7
100
AcDbText
10
570
20
410
30
0.0
40
3.0
1
HUB-02
50
0.0
0
LINE
5
A1
100
AcDbEntity
8
SERVERS
62
7
100
AcDbLine
10
820
20
300
30
0.0
11
880
21
300
31
0.0
0
LINE
5
A1
100
AcDbEntity
8
SERVERS
62
7
100
AcDbLine
10
880
20
300
30
0.0
11
880
21
400
31
0.0
0
LINE
5
A1
100
AcDbEntity
8
SERVERS
62
7
100
AcDbLine
10
880
20
400
30
0.0
11
820
21
400
31
0.0
0
LINE
5
A1
100
AcDbEntity
8
SERVERS
62
7
100
AcDbLine
10
820
20
400
30
0.0
11
820
21
300
31
0.0
0
TEXT
5
A2
100
AcDbEntity
8
ANNOTATIONS
62
7
100
AcDbText
10
830
20
410
30
0.0
40
3.0
1
HUB-03
50
0.0
0
LINE
5
A1
100
AcDbEntity
8
SERVERS
62
7
100
AcDbLine
10
1080
20
300
30
0.0
11
1140
21
300
31
0.0
0
LINE
5
A1
100
AcDbEntity
8
SERVERS
62
7
100
AcDbLine
10
1140
20
300
30
0.0
11
1140
21
400
31
0.0
0
LINE
5
A1
100
AcDbEntity
8
SERVERS
62
7
100
AcDbLine
10
1140
20
400
30
0.0
11
1080
21
400
31
0.0
0
LINE
5
A1
100
AcDbEntity
8
SERVERS
62
7
100
AcDbLine
10
1080
20
400
30
0.0
11
1080
21
300
31
0.0
0
TEXT
5
A2
100
AcDbEntity
8
ANNOTATIONS
62
7
100
AcDbText
10
1090
20
410
30
0.0
40
3.0
1
HUB-04
50
0.0
0
LINE
5
A1
100
AcDbEntity
8
SERVERS
62
7
100
AcDbLine
10
1340
20
300
30
0.0
11
1400
21
300
31
0.0
0
LINE
5
A1
100
AcDbEntity
8
SERVERS
62
7
100
AcDbLine
10
1400
20
300
30
0.0
11
1400
21
400
31
0.0
0
LINE
5
A1
100
AcDbEntity
8
SERVERS
62
7
100
AcDbLine
10
1400
20
400
30
0.0
11
1340
21
400
31
0.0
0
LINE
5
A1
100
AcDbEntity
8
SERVERS
62
7
100
AcDbLine
10
1340
20
400
30
0.0
11
1340
21
300
31
0.0
0
TEXT
5
A2
100
AcDbEntity
8
ANNOTATIONS
62
7
100
AcDbText
10
1350
20
410
30
0.0
40
3.0
1
HUB-05
50
0.0
0
LINE
5
A1
100
AcDbEntity
8
SERVERS
62
7
100
AcDbLine
10
300
20
1100
30
0.0
11
360
21
1100
31
0.0
0
LINE
5
A1
100
AcDbEntity
8
SERVERS
62
7
100
AcDbLine
10
360
20
1100
30
0.0
11
360
21
1200
31
0.0
0
LINE
5
A1
100
AcDbEntity
8
SERVERS
62
7
100
AcDbLine
10
360
20
1200
30
0.0
11
300
21
1200
31
0.0
0
LINE
5
A1
100
AcDbEntity
8
SERVERS
62
7
100
AcDbLine
10
300
20
1200
30
0.0
11
300
21
1100
31
0.0
0
TEXT
5
A2
100
AcDbEntity
8
ANNOTATIONS
62
7
100
AcDbText
10
310
20
1210
30
0.0
40
3.0
1
HUB-06
50
0.0
0
LINE
5
A1
100
AcDbEntity
8
SERVERS
62
7
100
AcDbLine
10
560
20
1100
30
0.0
11
620
21
1100
31
0.0
0
LINE
5
A1
100
AcDbEntity
8
SERVERS
62
7
100
AcDbLine
10
620
20
1100
30
0.0
11
620
21
1200
31
0.0
0
LINE
5
A1
100
AcDbEntity
8
SERVERS
62
7
100
AcDbLine
10
620
20
1200
30
0.0
11
560
21
1200
31
0.0
0
LINE
5
A1
100
AcDbEntity
8
SERVERS
62
7
100
AcDbLine
10
560
20
1200
30
0.0
11
560
21
1100
31
0.0
0
TEXT
5
A2
100
AcDbEntity
8
ANNOTATIONS
62
7
100
AcDbText
10
570
20
1210
30
0.0
40
3.0
1
HUB-07
50
0.0
0
LINE
5
A1
100
AcDbEntity
8
SERVERS
62
7
100
AcDbLine
10
820
20
1100
30
0.0
11
880
21
1100
31
0.0
0
LINE
5
A1
100
AcDbEntity
8
SERVERS
62
7
100
AcDbLine
10
880
20
1100
30
0.0
11
880
21
1200
31
0.0
0
LINE
5
A1
100
AcDbEntity
8
SERVERS
62
7
100
AcDbLine
10
880
20
1200
30
0.0
11
820
21
1200
31
0.0
0
LINE
5
A1
100
AcDbEntity
8
SERVERS
62
7
100
AcDbLine
10
820
20
1200
30
0.0
11
820
21
1100
31
0.0
0
TEXT
5
A2
100
AcDbEntity
8
ANNOTATIONS
62
7
100
AcDbText
10
830
20
1210
30
0.0
40
3.0
1
HUB-08
50
0.0
0
LINE
5
A1
100
AcDbEntity
8
SERVERS
62
7
100
AcDbLine
10
1080
20
1100
30
0.0
11
1140
21
1100
31
0.0
0
LINE
5
A1
100
AcDbEntity
8
SERVERS
62
7
100
AcDbLine
10
1140
20
1100
30
0.0
11
1140
21
1200
31
0.0
0
LINE
5
A1
100
AcDbEntity
8
SERVERS
62
7
100
AcDbLine
10
1140
20
1200
30
0.0
11
1080
21
1200
31
0.0
0
LINE
5
A1
100
AcDbEntity
8
SERVERS
62
7
100
AcDbLine
10
1080
20
1200
30
0.0
11
1080
21
1100
31
0.0
0
TEXT
5
A2
100
AcDbEntity
8
ANNOTATIONS
62
7
100
AcDbText
10
1090
20
1210
30
0.0
40
3.0
1
HUB-09
50
0.0
0
LINE
5
A1
100
AcDbEntity
8
SERVERS
62
7
100
AcDbLine
10
1340
20
1100
30
0.0
11
1400
21
1100
31
0.0
0
LINE
5
A1
100
AcDbEntity
8
SERVERS
62
7
100
AcDbLine
10
1400
20
1100
30
0.0
11
1400
21
1200
31
0.0
0
LINE
5
A1
100
AcDbEntity
8
SERVERS
62
7
100
AcDbLine
10
1400
20
1200
30
0.0
11
1340
21
1200
31
0.0
0
LINE
5
A1
100
AcDbEntity
8
SERVERS
62
7
100
AcDbLine
10
1340
20
1200
30
0.0
11
1340
21
1100
31
0.0
0
TEXT
5
A2
100
AcDbEntity
8
ANNOTATIONS
62
7
100
AcDbText
10
1350
20
1210
30
0.0
40
3.0
1
HUB-10
50
0.0
0
LINE
5
A1
100
AcDbEntity
8
NETWORK_EQUIPMENT
62
7
100
AcDbLine
10
100
20
100
30
0.0
11
145
21
100
31
0.0
0
LINE
5
A1
100
AcDbEntity
8
NETWORK_EQUIPMENT
62
7
100
AcDbLine
10
145
20
100
30
0.0
11
145
21
130
31
0.0
0
LINE
5
A1
100
AcDbEntity
8
NETWORK_EQUIPMENT
62
7
100
AcDbLine
10
145
20
130
30
0.0
11
100
21
130
31
0.0
0
LINE
5
A1
100
AcDbEntity
8
NETWORK_EQUIPMENT
62
7
100
AcDbLine
10
100
20
130
30
0.0
11
100
21
100
31
0.0
0
TEXT
5
A2
100
AcDbEntity
8
ANNOTATIONS
62
7
100
AcDbText
10
100
20
135
30
0.0
40
2.5
1
CORE-SW-01
50
0.0
0
LINE
5
A1
100
AcDbEntity
8
NETWORK_EQUIPMENT
62
7
100
AcDbLine
10
100
20
200
30
0.0
11
145
21
200
31
0.0
0
LINE
5
A1
100
AcDbEntity
8
NETWORK_EQUIPMENT
62
7
100
AcDbLine
10
145
20
200
30
0.0
11
145
21
230
31
0.0
0
LINE
5
A1
100
AcDbEntity
8
NETWORK_EQUIPMENT
62
7
100
AcDbLine
10
145
20
230
30
0.0
11
100
21
230
31
0.0
0
LINE
5
A1
100
AcDbEntity
8
NETWORK_EQUIPMENT
62
7
100
AcDbLine
10
100
20
230
30
0.0
11
100
21
200
31
0.0
0
TEXT
5
A2
100
AcDbEntity
8
ANNOTATIONS
62
7
100
AcDbText
10
100
20
235
30
0.0
40
2.5
1
CORE-SW-02
50
0.0
0
LINE
5
A1
100
AcDbEntity
8
NETWORK_EQUIPMENT
62
7
100
AcDbLine
10
2700
20
100
30
0.0
11
2745
21
100
31
0.0
0
LINE
5
A1
100
AcDbEntity
8
NETWORK_EQUIPMENT
62
7
100
AcDbLine
10
2745
20
100
30
0.0
11
2745
21
130
31
0.0
0
LINE
5
A1
100
AcDbEntity
8
NETWORK_EQUIPMENT
62
7
100
AcDbLine
10
2745
20
130
30
0.0
11
2700
21
130
31
0.0
0
LINE
5
A1
100
AcDbEntity
8
NETWORK_EQUIPMENT
62
7
100
AcDbLine
10
2700
20
130
30
0.0
11
2700
21
100
31
0.0
0
TEXT
5
A2
100
AcDbEntity
8
ANNOTATIONS
62
7
100
AcDbText
10
2700
20
135
30
0.0
40
2.5
1
EDGE-RTR-01
50
0.0
0
LINE
5
A1
100
AcDbEntity
8
NETWORK_EQUIPMENT
62
7
100
AcDbLine
10
2700
20
200
30
0.0
11
2745
21
200
31
0.0
0
LINE
5
A1
100
AcDbEntity
8
NETWORK_EQUIPMENT
62
7
100
AcDbLine
10
2745
20
200
30
0.0
11
2745
21
230
31
0.0
0
LINE
5
A1
100
AcDbEntity
8
NETWORK_EQUIPMENT
62
7
100
AcDbLine
10
2745
20
230
30
0.0
11
2700
21
230
31
0.0
0
LINE
5
A1
100
AcDbEntity
8
NETWORK_EQUIPMENT
62
7
100
AcDbLine
10
2700
20
230
30
0.0
11
2700
21
200
31
0.0
0
TEXT
5
A2
100
AcDbEntity
8
ANNOTATIONS
62
7
100
AcDbText
10
2700
20
235
30
0.0
40
2.5
1
EDGE-RTR-02
50
0.0
0
LINE
5
A1
100
AcDbEntity
8
NETWORK_EQUIPMENT
62
7
100
AcDbLine
10
1400
20
1800
30
0.0
11
1445
21
1800
31
0.0
0
LINE
5
A1
100
AcDbEntity
8
NETWORK_EQUIPMENT
62
7
100
AcDbLine
10
1445
20
1800
30
0.0
11
1445
21
1830
31
0.0
0
LINE
5
A1
100
AcDbEntity
8
NETWORK_EQUIPMENT
62
7
100
AcDbLine
10
1445
20
1830
30
0.0
11
1400
21
1830
31
0.0
0
LINE
5
A1
100
AcDbEntity
8
NETWORK_EQUIPMENT
62
7
100
AcDbLine
10
1400
20
1830
30
0.0
11
1400
21
1800
31
0.0
0
TEXT
5
A2
100
AcDbEntity
8
ANNOTATIONS
62
7
100
AcDbText
10
1400
20
1835
30
0.0
40
2.5
1
MGMT-SW-01
50
0.0
0
LINE
5
A1
100
AcDbEntity
8
CABLES
62
7
100
AcDbLine
10
150
20
50
30
0.0
11
2750
21
50
31
0.0
0
LINE
5
A1
100
AcDbEntity
8
CABLES
62
7
100
AcDbLine
10
150
20
1950
30
0.0
11
2750
21
1950
31
0.0
0
LINE
5
A1
100
AcDbEntity
8
CABLES
62
7
100
AcDbLine
10
150
20
50
30
0.0
11
150
21
1950
31
0.0
0
LINE
5
A1
100
AcDbEntity
8
CABLES
62
7
100
AcDbLine
10
2750
20
50
30
0.0
11
2750
21
1950
31
0.0
0
LINE
5
A1
100
AcDbEntity
8
CABLES
62
7
100
AcDbLine
10
330
20
300
30
0.0
11
330
21
50
31
0.0
0
LINE
5
A1
100
AcDbEntity
8
CABLES
62
7
100
AcDbLine
10
590
20
300
30
0.0
11
590
21
50
31
0.0
0
LINE
5
A1
100
AcDbEntity
8
CABLES
62
7
100
AcDbLine
10
850
20
300
30
0.0
11
850
21
50
31
0.0
0
LINE
5
A1
100
AcDbEntity
8
CABLES
62
7
100
AcDbLine
10
1110
20
300
30
0.0
11
1110
21
50
31
0.0
0
LINE
5
A1
100
AcDbEntity
8
CABLES
62
7
100
AcDbLine
10
1370
20
300
30
0.0
11
1370
21
50
31
0.0
0
LINE
5
A1
100
AcDbEntity
8
CABLES
62
7
100
AcDbLine
10
330
20
1200
30
0.0
11
330
21
1950
31
0.0
0
LINE
5
A1
100
AcDbEntity
8
CABLES
62
7
100
AcDbLine
10
590
20
1200
30
0.0
11
590
21
1950
31
0.0
0
LINE
5
A1
100
AcDbEntity
8
CABLES
62
7
100
AcDbLine
10
850
20
1200
30
0.0
11
850
21
1950
31
0.0
0
LINE
5
A1
100
AcDbEntity
8
CABLES
62
7
100
AcDbLine
10
1110
20
1200
30
0.0
11
1110
21
1950
31
0.0
0
LINE
5
A1
100
AcDbEntity
8
CABLES
62
7
100
AcDbLine
10
1370
20
1200
30
0.0
11
1370
21
1950
31
0.0
0
TEXT
5
A2
100
AcDbEntity
8
ANNOTATIONS
62
7
100
AcDbText
10
50
20
2100
30
0.0
40
8.0
1
AEONCOSMA P2P NETWORK - PLANTA BAIXA DO DATA CENTER
50
0.0
0
TEXT
5
A2
100
AcDbEntity
8
ANNOTATIONS
62
7
100
AcDbText
10
50
20
2070
30
0.0
40
4.0
1
Data Center: 10 Racks + Infraestrutura de Rede
50
0.0
0
TEXT
5
A2
100
AcDbEntity
8
ANNOTATIONS
62
7
100
AcDbText
10
50
20
2050
30
0.0
40
3.0
1
Escala: 1:100 | Data: 03/08/2025
50
0.0
0
TEXT
5
A2
100
AcDbEntity
8
DIMENSIONS
62
7
100
AcDbText
10
1400
20
-50
30
0.0
40
4.0
1
30m
50
0.0
0
TEXT
5
A2
100
AcDbEntity
8
DIMENSIONS
62
7
100
AcDbText
10
-100
20
1000
30
0.0
40
4.0
1
20m
50
0.0
0
TEXT
5
A2
100
AcDbEntity
8
ANNOTATIONS
62
7
100
AcDbText
10
3200
20
2000
30
0.0
40
5.0
1
LEGENDA TÉCNICA
50
0.0
0
LINE
5
A1
100
AcDbEntity
8
SERVERS
62
7
100
AcDbLine
10
3200
20
1950
30
0.0
11
3230
21
1950
31
0.0
0
TEXT
5
A2
100
AcDbEntity
8
ANNOTATIONS
62
7
100
AcDbText
10
3240
20
1945
30
0.0
40
3.0
1
Racks de Servidores (Nós Hub)
50
0.0
0
LINE
5
A1
100
AcDbEntity
8
NETWORK_EQUIPMENT
62
7
100
AcDbLine
10
3200
20
1920
30
0.0
11
3230
21
1920
31
0.0
0
TEXT
5
A2
100
AcDbEntity
8
ANNOTATIONS
62
7
100
AcDbText
10
3240
20
1915
30
0.0
40
3.0
1
Equipamentos de Rede
50
0.0
0
LINE
5
A1
100
AcDbEntity
8
CABLES
62
7
100
AcDbLine
10
3200
20
1890
30
0.0
11
3230
21
1890
31
0.0
0
TEXT
5
A2
100
AcDbEntity
8
ANNOTATIONS
62
7
100
AcDbText
10
3240
20
1885
30
0.0
40
3.0
1
Infraestrutura de Cabeamento
50
0.0
0
LINE
5
A1
100
AcDbEntity
8
ROOM_OUTLINE
62
7
100
AcDbLine
10
3200
20
1860
30
0.0
11
3230
21
1860
31
0.0
0
TEXT
5
A2
100
AcDbEntity
8
ANNOTATIONS
62
7
100
AcDbText
10
3240
20
1855
30
0.0
40
3.0
1
Perímetro do Data Center
50
0.0
0
ENDSEC
0
EOF
