  0
SECTION
  2
HEADER
  9
$ACADVER
  1
AC1009
  0
ENDSEC
  0
SECTION
  2
TABLES
  0
TABLE
  2
LAYER
 70
6
  0
LAYER
  2
0
 70
0
 62
7
  6
CONTINUOUS
  0
LAYER
  2
BARRAGEM
 70
0
 62
1
  6
CONTINUOUS
  0
LAYER
  2
CASA_FORCAS
 70
0
 62
2
  6
CONTINUOUS
  0
LAYER
  2
TURBINAS
 70
0
 62
3
  6
CONTINUOUS
  0
LAYER
  2
VERTEDOURO
 70
0
 62
4
  6
CONTINUOUS
  0
LAYER
  2
TEXTOS
 70
0
 62
7
  6
CONTINUOUS
  0
ENDTAB
  0
ENDSEC
  0
SECTION
  2
ENTITIES
  0
TEXT
  8
TEXTOS
 10
50.0
 20
250.0
 40
20.0
  1
UHE ITAIPU - PLANTA BAIXA
  0
TEXT
  8
TEXTOS
 10
50.0
 20
220.0
 40
12.0
  1
POTENCIA: 14,000 MW
  0
TEXT
  8
TEXTOS
 10
50.0
 20
200.0
 40
12.0
  1
ALTURA DA BARRAGEM: 196 m
  0
TEXT
  8
TEXTOS
 10
50.0
 20
180.0
 40
12.0
  1
TURBINAS: 20 UNIDADES
  0
LINE
  8
BARRAGEM
 10
100.0
 20
100.0
 11
1900.0
 21
100.0
  0
LINE
  8
CASA_FORCAS
 10
1950.0
 20
70.0
 11
2350.0
 21
70.0
  0
LINE
  8
CASA_FORCAS
 10
2350.0
 20
70.0
 11
2350.0
 21
20.0
  0
LINE
  8
CASA_FORCAS
 10
2350.0
 20
20.0
 11
1950.0
 21
20.0
  0
LINE
  8
CASA_FORCAS
 10
1950.0
 20
20.0
 11
1950.0
 21
70.0
  0
CIRCLE
  8
TURBINAS
 10
1970.0
 20
45.0
 40
8.0
  0
CIRCLE
  8
TURBINAS
 10
1990.0
 20
45.0
 40
8.0
  0
CIRCLE
  8
TURBINAS
 10
2010.0
 20
45.0
 40
8.0
  0
CIRCLE
  8
TURBINAS
 10
2030.0
 20
45.0
 40
8.0
  0
CIRCLE
  8
TURBINAS
 10
2050.0
 20
45.0
 40
8.0
  0
CIRCLE
  8
TURBINAS
 10
2070.0
 20
45.0
 40
8.0
  0
CIRCLE
  8
TURBINAS
 10
2090.0
 20
45.0
 40
8.0
  0
CIRCLE
  8
TURBINAS
 10
2110.0
 20
45.0
 40
8.0
  0
CIRCLE
  8
TURBINAS
 10
2130.0
 20
45.0
 40
8.0
  0
CIRCLE
  8
TURBINAS
 10
2150.0
 20
45.0
 40
8.0
  0
CIRCLE
  8
TURBINAS
 10
2170.0
 20
45.0
 40
8.0
  0
CIRCLE
  8
TURBINAS
 10
2190.0
 20
45.0
 40
8.0
  0
CIRCLE
  8
TURBINAS
 10
2210.0
 20
45.0
 40
8.0
  0
CIRCLE
  8
TURBINAS
 10
2230.0
 20
45.0
 40
8.0
  0
CIRCLE
  8
TURBINAS
 10
2250.0
 20
45.0
 40
8.0
  0
CIRCLE
  8
TURBINAS
 10
2270.0
 20
45.0
 40
8.0
  0
CIRCLE
  8
TURBINAS
 10
2290.0
 20
45.0
 40
8.0
  0
CIRCLE
  8
TURBINAS
 10
2310.0
 20
45.0
 40
8.0
  0
CIRCLE
  8
TURBINAS
 10
2330.0
 20
45.0
 40
8.0
  0
LINE
  8
VERTEDOURO
 10
600.0
 20
110.0
 11
1000.0
 21
110.0
  0
LINE
  8
VERTEDOURO
 10
1000.0
 20
110.0
 11
1000.0
 21
130.0
  0
LINE
  8
VERTEDOURO
 10
1000.0
 20
130.0
 11
600.0
 21
130.0
  0
LINE
  8
VERTEDOURO
 10
600.0
 20
130.0
 11
600.0
 21
110.0
  0
ARC
  8
RESERVATORIO
 10
1000.0
 20
150.0
 40
800.0
 50
20.0
 51
160.0
  0
TEXT
  8
TEXTOS
 10
2000.0
 20
10.0
 40
10.0
  1
CASA DE FORCAS
  0
TEXT
  8
TEXTOS
 10
800.0
 20
140.0
 40
10.0
  1
VERTEDOURO
  0
TEXT
  8
TEXTOS
 10
1000.0
 20
200.0
 40
10.0
  1
RESERVATORIO
  0
LINE
  8
TEXTOS
 10
100.0
 20
-50.0
 11
1900.0
 21
-50.0
  0
TEXT
  8
TEXTOS
 10
1000.0
 20
-70.0
 40
12.0
  1
1800 m
  0
TEXT
  8
TEXTOS
 10
50.0
 20
160.0
 40
10.0
  1
ESCALA 1:1000
  0
TEXT
  8
TEXTOS
 10
50.0
 20
140.0
 40
8.0
  1
SISTEMA AEON DIGITAL TWIN
  0
TEXT
  8
TEXTOS
 10
50.0
 20
120.0
 40
8.0
  1
LUIZ H. P. CRUZ - 03/08/2025
  0
ENDSEC
  0
EOF
