999
AutoCAD DXF - UHE Itaipu - Generated by AEON Digital Twin
0
SECTION
2
HEADER
9
$ACADVER
1
AC1015
9
$DWGCODEPAGE
3
ANSI_1252
9
$INSBASE
10
0.0
20
0.0
30
0.0
9
$EXTMIN
10
0.0
20
-200.0
30
0.0
9
$EXTMAX
10
2500.0
20
300.0
30
0.0
0
ENDSEC
0
SECTION
2
TABLES
0
TABLE
2
LAYER
5
2
330
0
100
AcDbSymbolTable
70
6
0
LAYER
5
10
330
2
100
AcDbSymbolTableRecord
100
AcDbLayerTableRecord
2
BARRAGEM
70
0
62
1
6
CONTINUOUS
0
LAYER
5
11
330
2
100
AcDbSymbolTableRecord
100
AcDbLayerTableRecord
2
CASA_FORCAS
70
0
62
2
6
CONTINUOUS
0
LAYER
5
12
330
2
100
AcDbSymbolTableRecord
100
AcDbLayerTableRecord
2
VERTEDOURO
70
0
62
4
6
CONTINUOUS
0
LAYER
5
13
330
2
100
AcDbSymbolTableRecord
100
AcDbLayerTableRecord
2
RESERVATORIO
70
0
62
5
6
CONTINUOUS
0
LAYER
5
14
330
2
100
AcDbSymbolTableRecord
100
AcDbLayerTableRecord
2
TURBINAS
70
0
62
3
6
CONTINUOUS
0
LAYER
5
15
330
2
100
AcDbSymbolTableRecord
100
AcDbLayerTableRecord
2
TEXTOS
70
0
62
7
6
CONTINUOUS
0
ENDTAB
0
ENDSEC
0
SECTION
2
ENTITIES

REM *** DESENHO DA BARRAGEM ***
0
LINE
8
BARRAGEM
10
0.0
20
0.0
30
0.0
11
1568.0
21
0.0
31
0.0

REM *** CASA DE FORÇAS ***
0
POLYLINE
8
CASA_FORCAS
66
1
10
0.0
20
0.0
30
0.0
0
VERTEX
8
CASA_FORCAS
10
1618.0
20
-30.0
30
0.0
0
VERTEX
8
CASA_FORCAS
10
2118.0
20
-30.0
30
0.0
0
VERTEX
8
CASA_FORCAS
10
2118.0
20
-80.0
30
0.0
0
VERTEX
8
CASA_FORCAS
10
1618.0
20
-80.0
30
0.0
0
VERTEX
8
CASA_FORCAS
10
1618.0
20
-30.0
30
0.0
0
SEQEND
8
CASA_FORCAS

REM *** TURBINAS ITAIPU (20 UNIDADES) ***
0
CIRCLE
8
TURBINAS
10
1628.0
20
-55.0
30
0.0
40
8.0
0
CIRCLE
8
TURBINAS
10
1648.0
20
-55.0
30
0.0
40
8.0
0
CIRCLE
8
TURBINAS
10
1668.0
20
-55.0
30
0.0
40
8.0
0
CIRCLE
8
TURBINAS
10
1688.0
20
-55.0
30
0.0
40
8.0
0
CIRCLE
8
TURBINAS
10
1708.0
20
-55.0
30
0.0
40
8.0
0
CIRCLE
8
TURBINAS
10
1728.0
20
-55.0
30
0.0
40
8.0
0
CIRCLE
8
TURBINAS
10
1748.0
20
-55.0
30
0.0
40
8.0
0
CIRCLE
8
TURBINAS
10
1768.0
20
-55.0
30
0.0
40
8.0
0
CIRCLE
8
TURBINAS
10
1788.0
20
-55.0
30
0.0
40
8.0
0
CIRCLE
8
TURBINAS
10
1808.0
20
-55.0
30
0.0
40
8.0
0
CIRCLE
8
TURBINAS
10
1828.0
20
-55.0
30
0.0
40
8.0
0
CIRCLE
8
TURBINAS
10
1848.0
20
-55.0
30
0.0
40
8.0
0
CIRCLE
8
TURBINAS
10
1868.0
20
-55.0
30
0.0
40
8.0
0
CIRCLE
8
TURBINAS
10
1888.0
20
-55.0
30
0.0
40
8.0
0
CIRCLE
8
TURBINAS
10
1908.0
20
-55.0
30
0.0
40
8.0
0
CIRCLE
8
TURBINAS
10
1928.0
20
-55.0
30
0.0
40
8.0
0
CIRCLE
8
TURBINAS
10
1948.0
20
-55.0
30
0.0
40
8.0
0
CIRCLE
8
TURBINAS
10
1968.0
20
-55.0
30
0.0
40
8.0
0
CIRCLE
8
TURBINAS
10
1988.0
20
-55.0
30
0.0
40
8.0
0
CIRCLE
8
TURBINAS
10
2008.0
20
-55.0
30
0.0
40
8.0

REM *** VERTEDOURO ***
0
POLYLINE
8
VERTEDOURO
66
1
10
0.0
20
0.0
30
0.0
0
VERTEX
8
VERTEDOURO
10
470.4
20
10.0
30
0.0
0
VERTEX
8
VERTEDOURO
10
940.8
20
10.0
30
0.0
0
VERTEX
8
VERTEDOURO
10
940.8
20
30.0
30
0.0
0
VERTEX
8
VERTEDOURO
10
470.4
20
30.0
30
0.0
0
VERTEX
8
VERTEDOURO
10
470.4
20
10.0
30
0.0
0
SEQEND
8
VERTEDOURO

REM *** RESERVATÓRIO ***
0
ARC
8
RESERVATORIO
10
784.0
20
100.0
30
0.0
40
1254.4
50
30.0
51
150.0

REM *** TEXTOS E ANOTAÇÕES ***
0
TEXT
8
TEXTOS
10
10.0
20
50.0
30
0.0
40
12.0
1
UHE ITAIPU
0
TEXT
8
TEXTOS
10
10.0
20
35.0
30
0.0
40
8.0
1
Potencia: 14000 MW
0
TEXT
8
TEXTOS
10
10.0
20
25.0
30
0.0
40
8.0
1
Altura da Barragem: 196 m
0
TEXT
8
TEXTOS
10
10.0
20
15.0
30
0.0
40
8.0
1
Turbinas: 20 unidades
0
TEXT
8
TEXTOS
10
1628.0
20
-20.0
30
0.0
40
6.0
1
CASA DE FORCAS
0
TEXT
8
TEXTOS
10
705.6
20
35.0
30
0.0
40
6.0
1
VERTEDOURO
0
TEXT
8
TEXTOS
10
784.0
20
150.0
30
0.0
40
6.0
1
RESERVATORIO

REM *** DIMENSÕES ***
0
LINE
8
TEXTOS
10
0.0
20
-100.0
30
0.0
11
1568.0
21
-100.0
31
0.0
0
TEXT
8
TEXTOS
10
784.0
20
-110.0
30
0.0
40
6.0
1
1568 m

REM *** TÍTULO E INFORMAÇÕES TÉCNICAS ***
0
TEXT
8
TEXTOS
10
10.0
20
200.0
30
0.0
40
16.0
1
PLANTA BAIXA - UHE ITAIPU
0
TEXT
8
TEXTOS
10
10.0
20
180.0
30
0.0
40
10.0
1
ESCALA 1:1000
0
TEXT
8
TEXTOS
10
10.0
20
160.0
30
0.0
40
8.0
1
GERADO PELO SISTEMA AEON DIGITAL TWIN
0
TEXT
8
TEXTOS
10
10.0
20
145.0
30
0.0
40
6.0
1
DESENVOLVIDO POR: LUIZ H. P. CRUZ
0
TEXT
8
TEXTOS
10
10.0
20
130.0
30
0.0
40
6.0
1
DATA: 03/08/2025

0
ENDSEC
0
EOF
