999
UHE ITAIPU - PLANTA BAIXA - SISTEMA AEON DIGITAL TWIN
0
SECTION
2
HEADER
9
$ACADVER
1
AC1015
9
$DWGCODEPAGE
3
ANSI_1252
9
$INSBASE
10
0.0
20
0.0
30
0.0
9
$EXTMIN
10
0.0
20
-200.0
30
0.0
9
$EXTMAX
10
2500.0
20
300.0
30
0.0
9
$LIMMIN
10
0.0
20
0.0
9
$LIMMAX
10
2500.0
20
300.0
0
ENDSEC
0
SECTION
2
TABLES
0
TABLE
2
VPORT
5
8
330
0
100
AcDbSymbolTable
70
1
0
VPORT
5
29
330
8
100
AcDbSymbolTableRecord
100
AcDbViewportTableRecord
2
*ACTIVE
70
0
10
0.0
20
0.0
11
1.0
21
1.0
12
1250.0
22
50.0
13
0.0
23
0.0
14
10.0
24
10.0
15
10.0
25
10.0
16
0.0
26
0.0
36
1.0
17
0.0
27
0.0
37
0.0
40
297.0
41
1.92798353909465
42
50.0
43
0.0
44
0.0
50
0.0
51
0.0
71
0
72
100
73
1
74
3
75
0
76
0
77
0
78
0
0
ENDTAB
0
TABLE
2
LTYPE
5
5
330
0
100
AcDbSymbolTable
70
3
0
LTYPE
5
14
330
5
100
AcDbSymbolTableRecord
100
AcDbLinetypeTableRecord
2
BYBLOCK
70
0
3

72
65
73
0
40
0.0
0
LTYPE
5
15
330
5
100
AcDbSymbolTableRecord
100
AcDbLinetypeTableRecord
2
BYLAYER
70
0
3

72
65
73
0
40
0.0
0
LTYPE
5
16
330
5
100
AcDbSymbolTableRecord
100
AcDbLinetypeTableRecord
2
CONTINUOUS
70
0
3
Solid line
72
65
73
0
40
0.0
0
ENDTAB
0
TABLE
2
LAYER
5
2
330
0
100
AcDbSymbolTable
70
7
0
LAYER
5
10
330
2
100
AcDbSymbolTableRecord
100
AcDbLayerTableRecord
2
0
70
0
62
7
6
CONTINUOUS
0
LAYER
5
11
330
2
100
AcDbSymbolTableRecord
100
AcDbLayerTableRecord
2
BARRAGEM
70
0
62
1
6
CONTINUOUS
0
LAYER
5
12
330
2
100
AcDbSymbolTableRecord
100
AcDbLayerTableRecord
2
CASA_FORCAS
70
0
62
2
6
CONTINUOUS
0
LAYER
5
13
330
2
100
AcDbSymbolTableRecord
100
AcDbLayerTableRecord
2
TURBINAS
70
0
62
3
6
CONTINUOUS
0
LAYER
5
18
330
2
100
AcDbSymbolTableRecord
100
AcDbLayerTableRecord
2
VERTEDOURO
70
0
62
4
6
CONTINUOUS
0
LAYER
5
19
330
2
100
AcDbSymbolTableRecord
100
AcDbLayerTableRecord
2
RESERVATORIO
70
0
62
5
6
CONTINUOUS
0
LAYER
5
20
330
2
100
AcDbSymbolTableRecord
100
AcDbLayerTableRecord
2
TEXTOS
70
0
62
7
6
CONTINUOUS
0
ENDTAB
0
TABLE
2
STYLE
5
3
330
0
100
AcDbSymbolTable
70
1
0
STYLE
5
11
330
3
100
AcDbSymbolTableRecord
100
AcDbTextStyleTableRecord
2
STANDARD
70
0
40
0.0
41
1.0
50
0.0
71
0
42
2.5
3
txt
4

0
ENDTAB
0
TABLE
2
UCS
5
7
330
0
100
AcDbSymbolTable
70
0
0
ENDTAB
0
TABLE
2
APPID
5
9
330
0
100
AcDbSymbolTable
70
1
0
APPID
5
12
330
9
100
AcDbSymbolTableRecord
100
AcDbRegAppTableRecord
2
ACAD
70
0
0
ENDTAB
0
TABLE
2
DIMSTYLE
5
A
330
0
100
AcDbSymbolTable
70
1
0
DIMSTYLE
105
27
330
A
100
AcDbSymbolTableRecord
100
AcDbDimStyleTableRecord
2
STANDARD
70
0
3

4

5

6

7

40
1.0
41
2.5
42
0.625
43
3.75
44
1.25
45
0.0
46
0.0
47
0.0
48
0.0
140
2.5
141
2.5
142
0.0
143
0.03937007874016
144
1.0
145
0.0
146
1.0
147
0.625
0
ENDTAB
0
TABLE
2
BLOCK_RECORD
5
1
330
0
100
AcDbSymbolTable
70
1
0
BLOCK_RECORD
5
1F
330
1
100
AcDbSymbolTableRecord
2
*MODEL_SPACE
0
BLOCK_RECORD
5
1B
330
1
100
AcDbSymbolTableRecord
2
*PAPER_SPACE
0
ENDTAB
0
ENDSEC
0
SECTION
2
BLOCKS
0
BLOCK
5
20
330
1F
100
AcDbEntity
8
0
100
AcDbBlockBegin
2
*MODEL_SPACE
70
0
10
0.0
20
0.0
30
0.0
3
*MODEL_SPACE
1

0
ENDBLK
5
21
330
1F
100
AcDbEntity
8
0
100
AcDbBlockEnd
0
BLOCK
5
1C
330
1B
100
AcDbEntity
67
1
8
0
100
AcDbBlockBegin
2
*PAPER_SPACE
70
0
10
0.0
20
0.0
30
0.0
3
*PAPER_SPACE
1

0
ENDBLK
5
1D
330
1B
100
AcDbEntity
67
1
8
0
100
AcDbBlockEnd
0
ENDSEC
0
SECTION
2
ENTITIES
0
TEXT
5
100
330
1F
100
AcDbEntity
8
TEXTOS
100
AcDbText
10
50.0
20
250.0
30
0.0
40
20.0
1
UHE ITAIPU - PLANTA BAIXA
50
0.0
51
0.0
7
STANDARD
71
0
72
0
11
50.0
21
250.0
31
0.0
210
0.0
220
0.0
230
1.0
100
AcDbText
0
TEXT
5
101
330
1F
100
AcDbEntity
8
TEXTOS
100
AcDbText
10
50.0
20
220.0
30
0.0
40
12.0
1
POTENCIA: 14,000 MW
50
0.0
51
0.0
7
STANDARD
71
0
72
0
11
50.0
21
220.0
31
0.0
210
0.0
220
0.0
230
1.0
100
AcDbText
0
TEXT
5
102
330
1F
100
AcDbEntity
8
TEXTOS
100
AcDbText
10
50.0
20
200.0
30
0.0
40
12.0
1
ALTURA DA BARRAGEM: 196 m
50
0.0
51
0.0
7
STANDARD
71
0
72
0
11
50.0
21
200.0
31
0.0
210
0.0
220
0.0
230
1.0
100
AcDbText
0
TEXT
5
103
330
1F
100
AcDbEntity
8
TEXTOS
100
AcDbText
10
50.0
20
180.0
30
0.0
40
12.0
1
TURBINAS: 20 UNIDADES
50
0.0
51
0.0
7
STANDARD
71
0
72
0
11
50.0
21
180.0
31
0.0
210
0.0
220
0.0
230
1.0
100
AcDbText
0
LINE
5
104
330
1F
100
AcDbEntity
8
BARRAGEM
100
AcDbLine
10
100.0
20
100.0
30
0.0
11
1900.0
21
100.0
31
0.0
0
POLYLINE
5
105
330
1F
100
AcDbEntity
8
CASA_FORCAS
66
1
100
AcDbPolyline
70
1
0
VERTEX
5
106
330
105
100
AcDbEntity
8
CASA_FORCAS
100
AcDbVertex
10
1950.0
20
70.0
30
0.0
70
0
0
VERTEX
5
107
330
105
100
AcDbEntity
8
CASA_FORCAS
100
AcDbVertex
10
2350.0
20
70.0
30
0.0
70
0
0
VERTEX
5
108
330
105
100
AcDbEntity
8
CASA_FORCAS
100
AcDbVertex
10
2350.0
20
20.0
30
0.0
70
0
0
VERTEX
5
109
330
105
100
AcDbEntity
8
CASA_FORCAS
100
AcDbVertex
10
1950.0
20
20.0
30
0.0
70
0
0
SEQEND
5
110
330
105
100
AcDbEntity
8
CASA_FORCAS
0
CIRCLE
5
111
330
1F
100
AcDbEntity
8
TURBINAS
100
AcDbCircle
10
1970.0
20
45.0
30
0.0
40
8.0
0
CIRCLE
5
112
330
1F
100
AcDbEntity
8
TURBINAS
100
AcDbCircle
10
1990.0
20
45.0
30
0.0
40
8.0
0
CIRCLE
5
113
330
1F
100
AcDbEntity
8
TURBINAS
100
AcDbCircle
10
2010.0
20
45.0
30
0.0
40
8.0
0
CIRCLE
5
114
330
1F
100
AcDbEntity
8
TURBINAS
100
AcDbCircle
10
2030.0
20
45.0
30
0.0
40
8.0
0
CIRCLE
5
115
330
1F
100
AcDbEntity
8
TURBINAS
100
AcDbCircle
10
2050.0
20
45.0
30
0.0
40
8.0
0
CIRCLE
5
116
330
1F
100
AcDbEntity
8
TURBINAS
100
AcDbCircle
10
2070.0
20
45.0
30
0.0
40
8.0
0
CIRCLE
5
117
330
1F
100
AcDbEntity
8
TURBINAS
100
AcDbCircle
10
2090.0
20
45.0
30
0.0
40
8.0
0
CIRCLE
5
118
330
1F
100
AcDbEntity
8
TURBINAS
100
AcDbCircle
10
2110.0
20
45.0
30
0.0
40
8.0
0
CIRCLE
5
119
330
1F
100
AcDbEntity
8
TURBINAS
100
AcDbCircle
10
2130.0
20
45.0
30
0.0
40
8.0
0
CIRCLE
5
120
330
1F
100
AcDbEntity
8
TURBINAS
100
AcDbCircle
10
2150.0
20
45.0
30
0.0
40
8.0
0
CIRCLE
5
121
330
1F
100
AcDbEntity
8
TURBINAS
100
AcDbCircle
10
2170.0
20
45.0
30
0.0
40
8.0
0
CIRCLE
5
122
330
1F
100
AcDbEntity
8
TURBINAS
100
AcDbCircle
10
2190.0
20
45.0
30
0.0
40
8.0
0
CIRCLE
5
123
330
1F
100
AcDbEntity
8
TURBINAS
100
AcDbCircle
10
2210.0
20
45.0
30
0.0
40
8.0
0
CIRCLE
5
124
330
1F
100
AcDbEntity
8
TURBINAS
100
AcDbCircle
10
2230.0
20
45.0
30
0.0
40
8.0
0
CIRCLE
5
125
330
1F
100
AcDbEntity
8
TURBINAS
100
AcDbCircle
10
2250.0
20
45.0
30
0.0
40
8.0
0
CIRCLE
5
126
330
1F
100
AcDbEntity
8
TURBINAS
100
AcDbCircle
10
2270.0
20
45.0
30
0.0
40
8.0
0
CIRCLE
5
127
330
1F
100
AcDbEntity
8
TURBINAS
100
AcDbCircle
10
2290.0
20
45.0
30
0.0
40
8.0
0
CIRCLE
5
128
330
1F
100
AcDbEntity
8
TURBINAS
100
AcDbCircle
10
2310.0
20
45.0
30
0.0
40
8.0
0
CIRCLE
5
129
330
1F
100
AcDbEntity
8
TURBINAS
100
AcDbCircle
10
2330.0
20
45.0
30
0.0
40
8.0
0
POLYLINE
5
130
330
1F
100
AcDbEntity
8
VERTEDOURO
66
1
100
AcDbPolyline
70
1
0
VERTEX
5
131
330
130
100
AcDbEntity
8
VERTEDOURO
100
AcDbVertex
10
600.0
20
110.0
30
0.0
70
0
0
VERTEX
5
132
330
130
100
AcDbEntity
8
VERTEDOURO
100
AcDbVertex
10
1000.0
20
110.0
30
0.0
70
0
0
VERTEX
5
133
330
130
100
AcDbEntity
8
VERTEDOURO
100
AcDbVertex
10
1000.0
20
130.0
30
0.0
70
0
0
VERTEX
5
134
330
130
100
AcDbEntity
8
VERTEDOURO
100
AcDbVertex
10
600.0
20
130.0
30
0.0
70
0
0
SEQEND
5
135
330
130
100
AcDbEntity
8
VERTEDOURO
0
ARC
5
136
330
1F
100
AcDbEntity
8
RESERVATORIO
100
AcDbCircle
10
1000.0
20
150.0
30
0.0
40
800.0
100
AcDbArc
50
20.0
51
160.0
0
TEXT
5
137
330
1F
100
AcDbEntity
8
TEXTOS
100
AcDbText
10
2000.0
20
10.0
30
0.0
40
10.0
1
CASA DE FORCAS
50
0.0
51
0.0
7
STANDARD
71
0
72
0
11
2000.0
21
10.0
31
0.0
210
0.0
220
0.0
230
1.0
100
AcDbText
0
TEXT
5
138
330
1F
100
AcDbEntity
8
TEXTOS
100
AcDbText
10
800.0
20
140.0
30
0.0
40
10.0
1
VERTEDOURO
50
0.0
51
0.0
7
STANDARD
71
0
72
0
11
800.0
21
140.0
31
0.0
210
0.0
220
0.0
230
1.0
100
AcDbText
0
TEXT
5
139
330
1F
100
AcDbEntity
8
TEXTOS
100
AcDbText
10
1000.0
20
200.0
30
0.0
40
10.0
1
RESERVATORIO
50
0.0
51
0.0
7
STANDARD
71
0
72
0
11
1000.0
21
200.0
31
0.0
210
0.0
220
0.0
230
1.0
100
AcDbText
0
LINE
5
140
330
1F
100
AcDbEntity
8
TEXTOS
100
AcDbLine
10
100.0
20
-50.0
30
0.0
11
1900.0
21
-50.0
31
0.0
0
TEXT
5
141
330
1F
100
AcDbEntity
8
TEXTOS
100
AcDbText
10
1000.0
20
-70.0
30
0.0
40
12.0
1
1800 m
50
0.0
51
0.0
7
STANDARD
71
0
72
1
11
1000.0
21
-70.0
31
0.0
210
0.0
220
0.0
230
1.0
100
AcDbText
0
TEXT
5
142
330
1F
100
AcDbEntity
8
TEXTOS
100
AcDbText
10
50.0
20
160.0
30
0.0
40
10.0
1
ESCALA 1:1000
50
0.0
51
0.0
7
STANDARD
71
0
72
0
11
50.0
21
160.0
31
0.0
210
0.0
220
0.0
230
1.0
100
AcDbText
0
TEXT
5
143
330
1F
100
AcDbEntity
8
TEXTOS
100
AcDbText
10
50.0
20
140.0
30
0.0
40
8.0
1
SISTEMA AEON DIGITAL TWIN
50
0.0
51
0.0
7
STANDARD
71
0
72
0
11
50.0
21
140.0
31
0.0
210
0.0
220
0.0
230
1.0
100
AcDbText
0
TEXT
5
144
330
1F
100
AcDbEntity
8
TEXTOS
100
AcDbText
10
50.0
20
120.0
30
0.0
40
8.0
1
LUIZ H. P. CRUZ
50
0.0
51
0.0
7
STANDARD
71
0
72
0
11
50.0
21
120.0
31
0.0
210
0.0
220
0.0
230
1.0
100
AcDbText
0
ENDSEC
0
EOF
